<?xml version="1.0" encoding="utf-8" standalone="no"?>
<!DOCTYPE svg PUBLIC "-//W3C//DTD SVG 1.1//EN"
  "http://www.w3.org/Graphics/SVG/1.1/DTD/svg11.dtd">
<svg xmlns:xlink="http://www.w3.org/1999/xlink" width="783.8pt" height="315.8pt" viewBox="0 0 783.8 315.8" xmlns="http://www.w3.org/2000/svg" version="1.1">
 <metadata>
  <rdf:RDF xmlns:dc="http://purl.org/dc/elements/1.1/" xmlns:cc="http://creativecommons.org/ns#" xmlns:rdf="http://www.w3.org/1999/02/22-rdf-syntax-ns#">
   <cc:Work>
    <dc:type rdf:resource="http://purl.org/dc/dcmitype/StillImage"/>
    <dc:date>2026-07-30T09:00:00Z</dc:date>
    <dc:format>image/svg+xml</dc:format>
    <dc:creator>
     <cc:Agent>
      <dc:title>Matplotlib v3.11.0, https://matplotlib.org/</dc:title>
     </cc:Agent>
    </dc:creator>
   </cc:Work>
  </rdf:RDF>
 </metadata>
 <defs>
  <style type="text/css">*{stroke-linejoin: round; stroke-linecap: butt}</style>
 </defs>
 <g id="figure_1">
  <g id="patch_1">
   <path d="M -0 315.8 
L 783.8 315.8 
L 783.8 0 
L -0 0 
z
" style="fill: #ffffff"/>
  </g>
  <g id="axes_1">
   <g id="patch_2">
    <path d="M 225.196667 93.982414 
L 311.29619 93.982414 
L 311.29619 47.213448 
L 225.196667 47.213448 
z
" clip-path="url(#p5b9f894208)" style="fill: #edf1f5; stroke: #8c98a8; stroke-width: 0.8; stroke-linejoin: miter"/>
   </g>
   <g id="patch_3">
    <path d="M 316.791905 93.982414 
L 402.891429 93.982414 
L 402.891429 47.213448 
L 316.791905 47.213448 
z
" clip-path="url(#p5b9f894208)" style="fill: #edf1f5; stroke: #8c98a8; stroke-width: 0.8; stroke-linejoin: miter"/>
   </g>
   <g id="patch_4">
    <path d="M 408.387143 93.982414 
L 494.486667 93.982414 
L 494.486667 47.213448 
L 408.387143 47.213448 
z
" clip-path="url(#p5b9f894208)" style="fill: #edf1f5; stroke: #8c98a8; stroke-width: 0.8; stroke-linejoin: miter"/>
   </g>
   <g id="patch_5">
    <path d="M 499.982381 93.982414 
L 586.081905 93.982414 
L 586.081905 47.213448 
L 499.982381 47.213448 
z
" clip-path="url(#p5b9f894208)" style="fill: #edf1f5; stroke: #8c98a8; stroke-width: 0.8; stroke-linejoin: miter"/>
   </g>
   <g id="patch_6">
    <path d="M 591.577619 93.982414 
L 677.677143 93.982414 
L 677.677143 47.213448 
L 591.577619 47.213448 
z
" clip-path="url(#p5b9f894208)" style="fill: #edf1f5; stroke: #8c98a8; stroke-width: 0.8; stroke-linejoin: miter"/>
   </g>
   <g id="patch_7">
    <path d="M 683.172857 93.982414 
L 769.272381 93.982414 
L 769.272381 47.213448 
L 683.172857 47.213448 
z
" clip-path="url(#p5b9f894208)" style="fill: #edf1f5; stroke: #8c98a8; stroke-width: 0.8; stroke-linejoin: miter"/>
   </g>
   <g id="patch_8">
    <path d="M 225.196667 145.947931 
L 311.29619 145.947931 
L 311.29619 99.178966 
L 225.196667 99.178966 
z
" clip-path="url(#p5b9f894208)" style="fill: #edf1f5; stroke: #8c98a8; stroke-width: 0.8; stroke-linejoin: miter"/>
   </g>
   <g id="patch_9">
    <path d="M 316.791905 145.947931 
L 402.891429 145.947931 
L 402.891429 99.178966 
L 316.791905 99.178966 
z
" clip-path="url(#p5b9f894208)" style="fill: #edf1f5; stroke: #8c98a8; stroke-width: 0.8; stroke-linejoin: miter"/>
   </g>
   <g id="patch_10">
    <path d="M 408.387143 145.947931 
L 494.486667 145.947931 
L 494.486667 99.178966 
L 408.387143 99.178966 
z
" clip-path="url(#p5b9f894208)" style="fill: #edf1f5; stroke: #8c98a8; stroke-width: 0.8; stroke-linejoin: miter"/>
   </g>
   <g id="patch_11">
    <path d="M 499.982381 145.947931 
L 586.081905 145.947931 
L 586.081905 99.178966 
L 499.982381 99.178966 
z
" clip-path="url(#p5b9f894208)" style="fill: #edf1f5; stroke: #8c98a8; stroke-width: 0.8; stroke-linejoin: miter"/>
   </g>
   <g id="patch_12">
    <path d="M 591.577619 145.947931 
L 677.677143 145.947931 
L 677.677143 99.178966 
L 591.577619 99.178966 
z
" clip-path="url(#p5b9f894208)" style="fill: #f6f7f8; stroke: #8c98a8; stroke-width: 0.8; stroke-linejoin: miter"/>
   </g>
   <g id="patch_13">
    <path d="M 683.172857 145.947931 
L 769.272381 145.947931 
L 769.272381 99.178966 
L 683.172857 99.178966 
z
" clip-path="url(#p5b9f894208)" style="fill: #f6f7f8; stroke: #8c98a8; stroke-width: 0.8; stroke-linejoin: miter"/>
   </g>
   <g id="patch_14">
    <path d="M 225.196667 197.913448 
L 311.29619 197.913448 
L 311.29619 151.144483 
L 225.196667 151.144483 
z
" clip-path="url(#p5b9f894208)" style="fill: #edf1f5; stroke: #8c98a8; stroke-width: 0.8; stroke-linejoin: miter"/>
   </g>
   <g id="patch_15">
    <path d="M 316.791905 197.913448 
L 402.891429 197.913448 
L 402.891429 151.144483 
L 316.791905 151.144483 
z
" clip-path="url(#p5b9f894208)" style="fill: #edf1f5; stroke: #8c98a8; stroke-width: 0.8; stroke-linejoin: miter"/>
   </g>
   <g id="patch_16">
    <path d="M 408.387143 197.913448 
L 494.486667 197.913448 
L 494.486667 151.144483 
L 408.387143 151.144483 
z
" clip-path="url(#p5b9f894208)" style="fill: #edf1f5; stroke: #8c98a8; stroke-width: 0.8; stroke-linejoin: miter"/>
   </g>
   <g id="patch_17">
    <path d="M 499.982381 197.913448 
L 586.081905 197.913448 
L 586.081905 151.144483 
L 499.982381 151.144483 
z
" clip-path="url(#p5b9f894208)" style="fill: #edf1f5; stroke: #8c98a8; stroke-width: 0.8; stroke-linejoin: miter"/>
   </g>
   <g id="patch_18">
    <path d="M 591.577619 197.913448 
L 677.677143 197.913448 
L 677.677143 151.144483 
L 591.577619 151.144483 
z
" clip-path="url(#p5b9f894208)" style="fill: #f6f7f8; stroke: #8c98a8; stroke-width: 0.8; stroke-linejoin: miter"/>
   </g>
   <g id="patch_19">
    <path d="M 683.172857 197.913448 
L 769.272381 197.913448 
L 769.272381 151.144483 
L 683.172857 151.144483 
z
" clip-path="url(#p5b9f894208)" style="fill: #f6f7f8; stroke: #8c98a8; stroke-width: 0.8; stroke-linejoin: miter"/>
   </g>
   <g id="patch_20">
    <path d="M 225.196667 249.878966 
L 311.29619 249.878966 
L 311.29619 203.11 
L 225.196667 203.11 
z
" clip-path="url(#p5b9f894208)" style="fill: #edf1f5; stroke: #8c98a8; stroke-width: 0.8; stroke-linejoin: miter"/>
   </g>
   <g id="patch_21">
    <path d="M 316.791905 249.878966 
L 402.891429 249.878966 
L 402.891429 203.11 
L 316.791905 203.11 
z
" clip-path="url(#p5b9f894208)" style="fill: #edf1f5; stroke: #8c98a8; stroke-width: 0.8; stroke-linejoin: miter"/>
   </g>
   <g id="patch_22">
    <path d="M 408.387143 249.878966 
L 494.486667 249.878966 
L 494.486667 203.11 
L 408.387143 203.11 
z
" clip-path="url(#p5b9f894208)" style="fill: #edf1f5; stroke: #8c98a8; stroke-width: 0.8; stroke-linejoin: miter"/>
   </g>
   <g id="patch_23">
    <path d="M 499.982381 249.878966 
L 586.081905 249.878966 
L 586.081905 203.11 
L 499.982381 203.11 
z
" clip-path="url(#p5b9f894208)" style="fill: #edf1f5; stroke: #8c98a8; stroke-width: 0.8; stroke-linejoin: miter"/>
   </g>
   <g id="patch_24">
    <path d="M 591.577619 249.878966 
L 677.677143 249.878966 
L 677.677143 203.11 
L 591.577619 203.11 
z
" clip-path="url(#p5b9f894208)" style="fill: #d8eadf; stroke: #8c98a8; stroke-width: 0.8; stroke-linejoin: miter"/>
   </g>
   <g id="patch_25">
    <path d="M 683.172857 249.878966 
L 769.272381 249.878966 
L 769.272381 203.11 
L 683.172857 203.11 
z
" clip-path="url(#p5b9f894208)" style="fill: #d8eadf; stroke: #8c98a8; stroke-width: 0.8; stroke-linejoin: miter"/>
   </g>
   <g id="line2d_1">
    <path d="M 11.779762 45.134828 
L 772.020238 45.134828 
" clip-path="url(#p5b9f894208)" style="fill: none; stroke: #22324a; stroke-linecap: square"/>
   </g>
   <g id="text_1">
    <!-- Policy -->
    <g style="fill: #22324a" transform="translate(254.510147 23.636519) scale(0.082 -0.082)">
     <defs>
      <path id="DejaVuSans-Bold-33" d="M 588 4666 
L 2584 4666 
Q 3475 4666 3951 4270 
Q 4428 3875 4428 3144 
Q 4428 2409 3951 2014 
Q 3475 1619 2584 1619 
L 1791 1619 
L 1791 0 
L 588 0 
L 588 4666 
z
M 1791 3794 
L 1791 2491 
L 2456 2491 
Q 2806 2491 2997 2661 
Q 3188 2831 3188 3144 
Q 3188 3456 2997 3625 
Q 2806 3794 2456 3794 
L 1791 3794 
z
" transform="scale(0.015625)"/>
      <path id="DejaVuSans-Bold-52" d="M 2203 2784 
Q 1831 2784 1636 2517 
Q 1441 2250 1441 1747 
Q 1441 1244 1636 976 
Q 1831 709 2203 709 
Q 2569 709 2762 976 
Q 2956 1244 2956 1747 
Q 2956 2250 2762 2517 
Q 2569 2784 2203 2784 
z
M 2203 3584 
Q 3106 3584 3614 3096 
Q 4122 2609 4122 1747 
Q 4122 884 3614 396 
Q 3106 -91 2203 -91 
Q 1297 -91 786 396 
Q 275 884 275 1747 
Q 275 2609 786 3096 
Q 1297 3584 2203 3584 
z
" transform="scale(0.015625)"/>
      <path id="DejaVuSans-Bold-4f" d="M 538 4863 
L 1656 4863 
L 1656 0 
L 538 0 
L 538 4863 
z
" transform="scale(0.015625)"/>
      <path id="DejaVuSans-Bold-4c" d="M 538 3500 
L 1656 3500 
L 1656 0 
L 538 0 
L 538 3500 
z
M 538 4863 
L 1656 4863 
L 1656 3950 
L 538 3950 
L 538 4863 
z
" transform="scale(0.015625)"/>
      <path id="DejaVuSans-Bold-46" d="M 3366 3391 
L 3366 2478 
Q 3138 2634 2908 2709 
Q 2678 2784 2431 2784 
Q 1963 2784 1702 2511 
Q 1441 2238 1441 1747 
Q 1441 1256 1702 982 
Q 1963 709 2431 709 
Q 2694 709 2930 787 
Q 3166 866 3366 1019 
L 3366 103 
Q 3103 6 2833 -42 
Q 2563 -91 2291 -91 
Q 1344 -91 809 395 
Q 275 881 275 1747 
Q 275 2613 809 3098 
Q 1344 3584 2291 3584 
Q 2566 3584 2833 3536 
Q 3100 3488 3366 3391 
z
" transform="scale(0.015625)"/>
      <path id="DejaVuSans-Bold-5c" d="M 78 3500 
L 1197 3500 
L 2138 1125 
L 2938 3500 
L 4056 3500 
L 2584 -331 
Q 2363 -916 2067 -1148 
Q 1772 -1381 1288 -1381 
L 641 -1381 
L 641 -647 
L 991 -647 
Q 1275 -647 1404 -556 
Q 1534 -466 1606 -231 
L 1638 -134 
L 78 3500 
z
" transform="scale(0.015625)"/>
     </defs>
     <use xlink:href="#DejaVuSans-Bold-33"/>
     <use xlink:href="#DejaVuSans-Bold-52" transform="translate(73.296875 0)"/>
     <use xlink:href="#DejaVuSans-Bold-4f" transform="translate(142 0)"/>
     <use xlink:href="#DejaVuSans-Bold-4c" transform="translate(176.28125 0)"/>
     <use xlink:href="#DejaVuSans-Bold-46" transform="translate(210.5625 0)"/>
     <use xlink:href="#DejaVuSans-Bold-5c" transform="translate(269.84375 0)"/>
    </g>
    <!-- Replay -->
    <g style="fill: #22324a" transform="translate(252.654897 33.478761) scale(0.082 -0.082)">
     <defs>
      <path id="DejaVuSans-Bold-35" d="M 2297 2597 
Q 2675 2597 2839 2737 
Q 3003 2878 3003 3200 
Q 3003 3519 2839 3656 
Q 2675 3794 2297 3794 
L 1791 3794 
L 1791 2597 
L 2297 2597 
z
M 1791 1766 
L 1791 0 
L 588 0 
L 588 4666 
L 2425 4666 
Q 3347 4666 3776 4356 
Q 4206 4047 4206 3378 
Q 4206 2916 3982 2619 
Q 3759 2322 3309 2181 
Q 3556 2125 3751 1926 
Q 3947 1728 4147 1325 
L 4800 0 
L 3519 0 
L 2950 1159 
Q 2778 1509 2601 1637 
Q 2425 1766 2131 1766 
L 1791 1766 
z
" transform="scale(0.015625)"/>
      <path id="DejaVuSans-Bold-48" d="M 4031 1759 
L 4031 1441 
L 1416 1441 
Q 1456 1047 1700 850 
Q 1944 653 2381 653 
Q 2734 653 3104 758 
Q 3475 863 3866 1075 
L 3866 213 
Q 3469 63 3072 -14 
Q 2675 -91 2278 -91 
Q 1328 -91 801 392 
Q 275 875 275 1747 
Q 275 2603 792 3093 
Q 1309 3584 2216 3584 
Q 3041 3584 3536 3087 
Q 4031 2591 4031 1759 
z
M 2881 2131 
Q 2881 2450 2695 2645 
Q 2509 2841 2209 2841 
Q 1884 2841 1681 2658 
Q 1478 2475 1428 2131 
L 2881 2131 
z
" transform="scale(0.015625)"/>
      <path id="DejaVuSans-Bold-53" d="M 1656 506 
L 1656 -1331 
L 538 -1331 
L 538 3500 
L 1656 3500 
L 1656 2988 
Q 1888 3294 2169 3439 
Q 2450 3584 2816 3584 
Q 3463 3584 3878 3070 
Q 4294 2556 4294 1747 
Q 4294 938 3878 423 
Q 3463 -91 2816 -91 
Q 2450 -91 2169 54 
Q 1888 200 1656 506 
z
M 2400 2772 
Q 2041 2772 1848 2508 
Q 1656 2244 1656 1747 
Q 1656 1250 1848 986 
Q 2041 722 2400 722 
Q 2759 722 2948 984 
Q 3138 1247 3138 1747 
Q 3138 2247 2948 2509 
Q 2759 2772 2400 2772 
z
" transform="scale(0.015625)"/>
      <path id="DejaVuSans-Bold-44" d="M 2106 1575 
Q 1756 1575 1579 1456 
Q 1403 1338 1403 1106 
Q 1403 894 1545 773 
Q 1688 653 1941 653 
Q 2256 653 2472 879 
Q 2688 1106 2688 1447 
L 2688 1575 
L 2106 1575 
z
M 3816 1997 
L 3816 0 
L 2688 0 
L 2688 519 
Q 2463 200 2181 54 
Q 1900 -91 1497 -91 
Q 953 -91 614 226 
Q 275 544 275 1050 
Q 275 1666 698 1953 
Q 1122 2241 2028 2241 
L 2688 2241 
L 2688 2328 
Q 2688 2594 2478 2717 
Q 2269 2841 1825 2841 
Q 1466 2841 1156 2769 
Q 847 2697 581 2553 
L 581 3406 
Q 941 3494 1303 3539 
Q 1666 3584 2028 3584 
Q 2975 3584 3395 3211 
Q 3816 2838 3816 1997 
z
" transform="scale(0.015625)"/>
     </defs>
     <use xlink:href="#DejaVuSans-Bold-35"/>
     <use xlink:href="#DejaVuSans-Bold-48" transform="translate(77 0)"/>
     <use xlink:href="#DejaVuSans-Bold-53" transform="translate(144.828125 0)"/>
     <use xlink:href="#DejaVuSans-Bold-4f" transform="translate(216.40625 0)"/>
     <use xlink:href="#DejaVuSans-Bold-44" transform="translate(250.6875 0)"/>
     <use xlink:href="#DejaVuSans-Bold-5c" transform="translate(315.09375 0)"/>
    </g>
   </g>
   <g id="text_2">
    <!-- Composed -->
    <g style="fill: #22324a" transform="translate(335.836167 23.636839) scale(0.082 -0.082)">
     <defs>
      <path id="DejaVuSans-Bold-26" d="M 4288 256 
Q 3956 84 3597 -3 
Q 3238 -91 2847 -91 
Q 1681 -91 1000 561 
Q 319 1213 319 2328 
Q 319 3447 1000 4098 
Q 1681 4750 2847 4750 
Q 3238 4750 3597 4662 
Q 3956 4575 4288 4403 
L 4288 3438 
Q 3953 3666 3628 3772 
Q 3303 3878 2944 3878 
Q 2300 3878 1931 3465 
Q 1563 3053 1563 2328 
Q 1563 1606 1931 1193 
Q 2300 781 2944 781 
Q 3303 781 3628 887 
Q 3953 994 4288 1222 
L 4288 256 
z
" transform="scale(0.015625)"/>
      <path id="DejaVuSans-Bold-50" d="M 3781 2919 
Q 3994 3244 4286 3414 
Q 4578 3584 4928 3584 
Q 5531 3584 5847 3212 
Q 6163 2841 6163 2131 
L 6163 0 
L 5038 0 
L 5038 1825 
Q 5041 1866 5042 1909 
Q 5044 1953 5044 2034 
Q 5044 2406 4934 2573 
Q 4825 2741 4581 2741 
Q 4263 2741 4089 2478 
Q 3916 2216 3909 1719 
L 3909 0 
L 2784 0 
L 2784 1825 
Q 2784 2406 2684 2573 
Q 2584 2741 2328 2741 
Q 2006 2741 1831 2477 
Q 1656 2213 1656 1722 
L 1656 0 
L 531 0 
L 531 3500 
L 1656 3500 
L 1656 2988 
Q 1863 3284 2130 3434 
Q 2397 3584 2719 3584 
Q 3081 3584 3359 3409 
Q 3638 3234 3781 2919 
z
" transform="scale(0.015625)"/>
      <path id="DejaVuSans-Bold-56" d="M 3272 3391 
L 3272 2541 
Q 2913 2691 2578 2766 
Q 2244 2841 1947 2841 
Q 1628 2841 1473 2761 
Q 1319 2681 1319 2516 
Q 1319 2381 1436 2309 
Q 1553 2238 1856 2203 
L 2053 2175 
Q 2913 2066 3209 1816 
Q 3506 1566 3506 1031 
Q 3506 472 3093 190 
Q 2681 -91 1863 -91 
Q 1516 -91 1145 -36 
Q 775 19 384 128 
L 384 978 
Q 719 816 1070 734 
Q 1422 653 1784 653 
Q 2113 653 2278 743 
Q 2444 834 2444 1013 
Q 2444 1163 2330 1236 
Q 2216 1309 1875 1350 
L 1678 1375 
Q 931 1469 631 1722 
Q 331 1975 331 2491 
Q 331 3047 712 3315 
Q 1094 3584 1881 3584 
Q 2191 3584 2531 3537 
Q 2872 3491 3272 3391 
z
" transform="scale(0.015625)"/>
      <path id="DejaVuSans-Bold-47" d="M 2919 2988 
L 2919 4863 
L 4044 4863 
L 4044 0 
L 2919 0 
L 2919 506 
Q 2688 197 2409 53 
Q 2131 -91 1766 -91 
Q 1119 -91 703 423 
Q 288 938 288 1747 
Q 288 2556 703 3070 
Q 1119 3584 1766 3584 
Q 2128 3584 2408 3439 
Q 2688 3294 2919 2988 
z
M 2181 722 
Q 2541 722 2730 984 
Q 2919 1247 2919 1747 
Q 2919 2247 2730 2509 
Q 2541 2772 2181 2772 
Q 1825 2772 1636 2509 
Q 1447 2247 1447 1747 
Q 1447 1247 1636 984 
Q 1825 722 2181 722 
z
" transform="scale(0.015625)"/>
     </defs>
     <use xlink:href="#DejaVuSans-Bold-26"/>
     <use xlink:href="#DejaVuSans-Bold-52" transform="translate(73.390625 0)"/>
     <use xlink:href="#DejaVuSans-Bold-50" transform="translate(142.09375 0)"/>
     <use xlink:href="#DejaVuSans-Bold-53" transform="translate(246.296875 0)"/>
     <use xlink:href="#DejaVuSans-Bold-52" transform="translate(317.875 0)"/>
     <use xlink:href="#DejaVuSans-Bold-56" transform="translate(386.578125 0)"/>
     <use xlink:href="#DejaVuSans-Bold-48" transform="translate(446.09375 0)"/>
     <use xlink:href="#DejaVuSans-Bold-47" transform="translate(513.921875 0)"/>
    </g>
    <!-- Corpus -->
    <g style="fill: #22324a" transform="translate(343.700479 33.478441) scale(0.082 -0.082)">
     <defs>
      <path id="DejaVuSans-Bold-55" d="M 3138 2547 
Q 2991 2616 2845 2648 
Q 2700 2681 2553 2681 
Q 2122 2681 1889 2404 
Q 1656 2128 1656 1613 
L 1656 0 
L 538 0 
L 538 3500 
L 1656 3500 
L 1656 2925 
Q 1872 3269 2151 3426 
Q 2431 3584 2822 3584 
Q 2878 3584 2943 3579 
Q 3009 3575 3134 3559 
L 3138 2547 
z
" transform="scale(0.015625)"/>
      <path id="DejaVuSans-Bold-58" d="M 500 1363 
L 500 3500 
L 1625 3500 
L 1625 3150 
Q 1625 2866 1622 2436 
Q 1619 2006 1619 1863 
Q 1619 1441 1641 1255 
Q 1663 1069 1716 984 
Q 1784 875 1895 815 
Q 2006 756 2150 756 
Q 2500 756 2700 1025 
Q 2900 1294 2900 1772 
L 2900 3500 
L 4019 3500 
L 4019 0 
L 2900 0 
L 2900 506 
Q 2647 200 2364 54 
Q 2081 -91 1741 -91 
Q 1134 -91 817 281 
Q 500 653 500 1363 
z
" transform="scale(0.015625)"/>
     </defs>
     <use xlink:href="#DejaVuSans-Bold-26"/>
     <use xlink:href="#DejaVuSans-Bold-52" transform="translate(73.390625 0)"/>
     <use xlink:href="#DejaVuSans-Bold-55" transform="translate(142.09375 0)"/>
     <use xlink:href="#DejaVuSans-Bold-53" transform="translate(191.40625 0)"/>
     <use xlink:href="#DejaVuSans-Bold-58" transform="translate(262.984375 0)"/>
     <use xlink:href="#DejaVuSans-Bold-56" transform="translate(334.171875 0)"/>
    </g>
   </g>
   <g id="text_3">
    <!-- Typed -->
    <g style="fill: #22324a" transform="translate(437.803124 23.636519) scale(0.082 -0.082)">
     <defs>
      <path id="DejaVuSans-Bold-37" d="M 31 4666 
L 4331 4666 
L 4331 3756 
L 2784 3756 
L 2784 0 
L 1581 0 
L 1581 3756 
L 31 3756 
L 31 4666 
z
" transform="scale(0.015625)"/>
     </defs>
     <use xlink:href="#DejaVuSans-Bold-37"/>
     <use xlink:href="#DejaVuSans-Bold-5c" transform="translate(56.359375 0)"/>
     <use xlink:href="#DejaVuSans-Bold-53" transform="translate(121.546875 0)"/>
     <use xlink:href="#DejaVuSans-Bold-48" transform="translate(193.125 0)"/>
     <use xlink:href="#DejaVuSans-Bold-47" transform="translate(260.953125 0)"/>
    </g>
    <!-- Transfer -->
    <g style="fill: #22324a" transform="translate(432.35653 33.478761) scale(0.082 -0.082)">
     <defs>
      <path id="DejaVuSans-Bold-51" d="M 4056 2131 
L 4056 0 
L 2931 0 
L 2931 347 
L 2931 1631 
Q 2931 2084 2911 2256 
Q 2891 2428 2841 2509 
Q 2775 2619 2662 2680 
Q 2550 2741 2406 2741 
Q 2056 2741 1856 2470 
Q 1656 2200 1656 1722 
L 1656 0 
L 538 0 
L 538 3500 
L 1656 3500 
L 1656 2988 
Q 1909 3294 2193 3439 
Q 2478 3584 2822 3584 
Q 3428 3584 3742 3212 
Q 4056 2841 4056 2131 
z
" transform="scale(0.015625)"/>
      <path id="DejaVuSans-Bold-49" d="M 2841 4863 
L 2841 4128 
L 2222 4128 
Q 1984 4128 1890 4042 
Q 1797 3956 1797 3744 
L 1797 3500 
L 2753 3500 
L 2753 2700 
L 1797 2700 
L 1797 0 
L 678 0 
L 678 2700 
L 122 2700 
L 122 3500 
L 678 3500 
L 678 3744 
Q 678 4316 997 4589 
Q 1316 4863 1984 4863 
L 2841 4863 
z
" transform="scale(0.015625)"/>
     </defs>
     <use xlink:href="#DejaVuSans-Bold-37"/>
     <use xlink:href="#DejaVuSans-Bold-55" transform="translate(57.234375 0)"/>
     <use xlink:href="#DejaVuSans-Bold-44" transform="translate(106.546875 0)"/>
     <use xlink:href="#DejaVuSans-Bold-51" transform="translate(174.03125 0)"/>
     <use xlink:href="#DejaVuSans-Bold-56" transform="translate(245.21875 0)"/>
     <use xlink:href="#DejaVuSans-Bold-49" transform="translate(304.734375 0)"/>
     <use xlink:href="#DejaVuSans-Bold-48" transform="translate(348.234375 0)"/>
     <use xlink:href="#DejaVuSans-Bold-55" transform="translate(416.0625 0)"/>
    </g>
   </g>
   <g id="text_4">
    <!-- Durable -->
    <g style="fill: #22324a" transform="translate(524.799955 23.636519) scale(0.082 -0.082)">
     <defs>
      <path id="DejaVuSans-Bold-27" d="M 1791 3756 
L 1791 909 
L 2222 909 
Q 2959 909 3348 1275 
Q 3738 1641 3738 2338 
Q 3738 3031 3350 3393 
Q 2963 3756 2222 3756 
L 1791 3756 
z
M 588 4666 
L 1856 4666 
Q 2919 4666 3439 4514 
Q 3959 4363 4331 4000 
Q 4659 3684 4818 3271 
Q 4978 2859 4978 2338 
Q 4978 1809 4818 1395 
Q 4659 981 4331 666 
Q 3956 303 3431 151 
Q 2906 0 1856 0 
L 588 0 
L 588 4666 
z
" transform="scale(0.015625)"/>
      <path id="DejaVuSans-Bold-45" d="M 2400 722 
Q 2759 722 2948 984 
Q 3138 1247 3138 1747 
Q 3138 2247 2948 2509 
Q 2759 2772 2400 2772 
Q 2041 2772 1848 2508 
Q 1656 2244 1656 1747 
Q 1656 1250 1848 986 
Q 2041 722 2400 722 
z
M 1656 2988 
Q 1888 3294 2169 3439 
Q 2450 3584 2816 3584 
Q 3463 3584 3878 3070 
Q 4294 2556 4294 1747 
Q 4294 938 3878 423 
Q 3463 -91 2816 -91 
Q 2450 -91 2169 54 
Q 1888 200 1656 506 
L 1656 0 
L 538 0 
L 538 4863 
L 1656 4863 
L 1656 2988 
z
" transform="scale(0.015625)"/>
     </defs>
     <use xlink:href="#DejaVuSans-Bold-27"/>
     <use xlink:href="#DejaVuSans-Bold-58" transform="translate(83.015625 0)"/>
     <use xlink:href="#DejaVuSans-Bold-55" transform="translate(154.203125 0)"/>
     <use xlink:href="#DejaVuSans-Bold-44" transform="translate(203.515625 0)"/>
     <use xlink:href="#DejaVuSans-Bold-45" transform="translate(271 0)"/>
     <use xlink:href="#DejaVuSans-Bold-4f" transform="translate(342.578125 0)"/>
     <use xlink:href="#DejaVuSans-Bold-48" transform="translate(376.859375 0)"/>
    </g>
    <!-- Revocation -->
    <g style="fill: #22324a" transform="translate(517.306565 33.478761) scale(0.082 -0.082)">
     <defs>
      <path id="DejaVuSans-Bold-59" d="M 97 3500 
L 1216 3500 
L 2088 1081 
L 2956 3500 
L 4078 3500 
L 2700 0 
L 1472 0 
L 97 3500 
z
" transform="scale(0.015625)"/>
      <path id="DejaVuSans-Bold-57" d="M 1759 4494 
L 1759 3500 
L 2913 3500 
L 2913 2700 
L 1759 2700 
L 1759 1216 
Q 1759 972 1856 886 
Q 1953 800 2241 800 
L 2816 800 
L 2816 0 
L 1856 0 
Q 1194 0 917 276 
Q 641 553 641 1216 
L 641 2700 
L 84 2700 
L 84 3500 
L 641 3500 
L 641 4494 
L 1759 4494 
z
" transform="scale(0.015625)"/>
     </defs>
     <use xlink:href="#DejaVuSans-Bold-35"/>
     <use xlink:href="#DejaVuSans-Bold-48" transform="translate(77 0)"/>
     <use xlink:href="#DejaVuSans-Bold-59" transform="translate(144.828125 0)"/>
     <use xlink:href="#DejaVuSans-Bold-52" transform="translate(210.015625 0)"/>
     <use xlink:href="#DejaVuSans-Bold-46" transform="translate(278.71875 0)"/>
     <use xlink:href="#DejaVuSans-Bold-44" transform="translate(338 0)"/>
     <use xlink:href="#DejaVuSans-Bold-57" transform="translate(405.484375 0)"/>
     <use xlink:href="#DejaVuSans-Bold-4c" transform="translate(453.28125 0)"/>
     <use xlink:href="#DejaVuSans-Bold-52" transform="translate(487.5625 0)"/>
     <use xlink:href="#DejaVuSans-Bold-51" transform="translate(556.265625 0)"/>
    </g>
   </g>
   <g id="text_5">
    <!-- TPM quote -->
    <g style="fill: #22324a" transform="translate(609.906943 23.636198) scale(0.082 -0.082)">
     <defs>
      <path id="DejaVuSans-Bold-30" d="M 588 4666 
L 2119 4666 
L 3181 2169 
L 4250 4666 
L 5778 4666 
L 5778 0 
L 4641 0 
L 4641 3413 
L 3566 897 
L 2803 897 
L 1728 3413 
L 1728 0 
L 588 0 
L 588 4666 
z
" transform="scale(0.015625)"/>
      <path id="DejaVuSans-Bold-3" transform="scale(0.015625)"/>
      <path id="DejaVuSans-Bold-54" d="M 2181 2772 
Q 1825 2772 1636 2509 
Q 1447 2247 1447 1747 
Q 1447 1247 1636 984 
Q 1825 722 2181 722 
Q 2541 722 2730 984 
Q 2919 1247 2919 1747 
Q 2919 2247 2730 2509 
Q 2541 2772 2181 2772 
z
M 2919 506 
Q 2688 197 2409 53 
Q 2131 -91 1766 -91 
Q 1119 -91 703 423 
Q 288 938 288 1747 
Q 288 2556 703 3067 
Q 1119 3578 1766 3578 
Q 2131 3578 2409 3434 
Q 2688 3291 2919 2981 
L 2919 3500 
L 4044 3500 
L 4044 -1331 
L 2919 -1331 
L 2919 506 
z
" transform="scale(0.015625)"/>
     </defs>
     <use xlink:href="#DejaVuSans-Bold-37"/>
     <use xlink:href="#DejaVuSans-Bold-33" transform="translate(68.21875 0)"/>
     <use xlink:href="#DejaVuSans-Bold-30" transform="translate(141.515625 0)"/>
     <use xlink:href="#DejaVuSans-Bold-3" transform="translate(241.03125 0)"/>
     <use xlink:href="#DejaVuSans-Bold-54" transform="translate(275.84375 0)"/>
     <use xlink:href="#DejaVuSans-Bold-58" transform="translate(347.421875 0)"/>
     <use xlink:href="#DejaVuSans-Bold-52" transform="translate(418.609375 0)"/>
     <use xlink:href="#DejaVuSans-Bold-57" transform="translate(487.3125 0)"/>
     <use xlink:href="#DejaVuSans-Bold-48" transform="translate(535.109375 0)"/>
    </g>
    <!-- verification -->
    <g style="fill: #22324a" transform="translate(608.409162 33.478441) scale(0.082 -0.082)">
     <defs>
      <path id="DejaVuSans-Bold-13ab" d="M 3078 4863 
L 4206 4863 
L 4206 3950 
L 3078 3950 
L 3078 4863 
z
M 2847 4863 
L 2847 4128 
L 2228 4128 
Q 1994 4128 1903 4042 
Q 1813 3956 1813 3744 
L 1813 3500 
L 4206 3500 
L 4206 0 
L 3078 0 
L 3078 2700 
L 1813 2700 
L 1813 0 
L 684 0 
L 684 2700 
L 134 2700 
L 134 3500 
L 684 3500 
L 684 3744 
Q 684 4316 1003 4589 
Q 1322 4863 1991 4863 
L 2847 4863 
z
" transform="scale(0.015625)"/>
     </defs>
     <use xlink:href="#DejaVuSans-Bold-59"/>
     <use xlink:href="#DejaVuSans-Bold-48" transform="translate(65.1875 0)"/>
     <use xlink:href="#DejaVuSans-Bold-55" transform="translate(133.015625 0)"/>
     <use xlink:href="#DejaVuSans-Bold-4c" transform="translate(182.328125 0)"/>
     <use xlink:href="#DejaVuSans-Bold-13ab" transform="translate(216.609375 0)"/>
     <use xlink:href="#DejaVuSans-Bold-46" transform="translate(290.734375 0)"/>
     <use xlink:href="#DejaVuSans-Bold-44" transform="translate(350.015625 0)"/>
     <use xlink:href="#DejaVuSans-Bold-57" transform="translate(417.5 0)"/>
     <use xlink:href="#DejaVuSans-Bold-4c" transform="translate(465.296875 0)"/>
     <use xlink:href="#DejaVuSans-Bold-52" transform="translate(499.578125 0)"/>
     <use xlink:href="#DejaVuSans-Bold-51" transform="translate(568.28125 0)"/>
    </g>
   </g>
   <g id="text_6">
    <!-- TPM mutation -->
    <g style="fill: #22324a" transform="translate(693.89476 23.636519) scale(0.082 -0.082)">
     <use xlink:href="#DejaVuSans-Bold-37"/>
     <use xlink:href="#DejaVuSans-Bold-33" transform="translate(68.21875 0)"/>
     <use xlink:href="#DejaVuSans-Bold-30" transform="translate(141.515625 0)"/>
     <use xlink:href="#DejaVuSans-Bold-3" transform="translate(241.03125 0)"/>
     <use xlink:href="#DejaVuSans-Bold-50" transform="translate(275.84375 0)"/>
     <use xlink:href="#DejaVuSans-Bold-58" transform="translate(380.046875 0)"/>
     <use xlink:href="#DejaVuSans-Bold-57" transform="translate(451.234375 0)"/>
     <use xlink:href="#DejaVuSans-Bold-44" transform="translate(499.03125 0)"/>
     <use xlink:href="#DejaVuSans-Bold-57" transform="translate(566.515625 0)"/>
     <use xlink:href="#DejaVuSans-Bold-4c" transform="translate(614.3125 0)"/>
     <use xlink:href="#DejaVuSans-Bold-52" transform="translate(648.59375 0)"/>
     <use xlink:href="#DejaVuSans-Bold-51" transform="translate(717.296875 0)"/>
    </g>
    <!-- rejection -->
    <g style="fill: #22324a" transform="translate(705.702119 33.478761) scale(0.082 -0.082)">
     <defs>
      <path id="DejaVuSans-Bold-4d" d="M 538 3500 
L 1656 3500 
L 1656 63 
Q 1656 -641 1318 -1011 
Q 981 -1381 341 -1381 
L -213 -1381 
L -213 -647 
L -19 -647 
Q 300 -647 419 -503 
Q 538 -359 538 63 
L 538 3500 
z
M 538 4863 
L 1656 4863 
L 1656 3950 
L 538 3950 
L 538 4863 
z
" transform="scale(0.015625)"/>
     </defs>
     <use xlink:href="#DejaVuSans-Bold-55"/>
     <use xlink:href="#DejaVuSans-Bold-48" transform="translate(49.3125 0)"/>
     <use xlink:href="#DejaVuSans-Bold-4d" transform="translate(117.140625 0)"/>
     <use xlink:href="#DejaVuSans-Bold-48" transform="translate(151.421875 0)"/>
     <use xlink:href="#DejaVuSans-Bold-46" transform="translate(219.25 0)"/>
     <use xlink:href="#DejaVuSans-Bold-57" transform="translate(278.53125 0)"/>
     <use xlink:href="#DejaVuSans-Bold-4c" transform="translate(326.328125 0)"/>
     <use xlink:href="#DejaVuSans-Bold-52" transform="translate(360.609375 0)"/>
     <use xlink:href="#DejaVuSans-Bold-51" transform="translate(429.3125 0)"/>
    </g>
   </g>
   <g id="text_7">
    <!-- Local x86-64 -->
    <g style="fill: #17212b" transform="translate(16.359524 67.807208) scale(0.082 -0.082)">
     <defs>
      <path id="DejaVuSans-2f" d="M 628 4666 
L 1259 4666 
L 1259 531 
L 3531 531 
L 3531 0 
L 628 0 
L 628 4666 
z
" transform="scale(0.015625)"/>
      <path id="DejaVuSans-52" d="M 1959 3097 
Q 1497 3097 1228 2736 
Q 959 2375 959 1747 
Q 959 1119 1226 758 
Q 1494 397 1959 397 
Q 2419 397 2687 759 
Q 2956 1122 2956 1747 
Q 2956 2369 2687 2733 
Q 2419 3097 1959 3097 
z
M 1959 3584 
Q 2709 3584 3137 3096 
Q 3566 2609 3566 1747 
Q 3566 888 3137 398 
Q 2709 -91 1959 -91 
Q 1206 -91 779 398 
Q 353 888 353 1747 
Q 353 2609 779 3096 
Q 1206 3584 1959 3584 
z
" transform="scale(0.015625)"/>
      <path id="DejaVuSans-46" d="M 3122 3366 
L 3122 2828 
Q 2878 2963 2633 3030 
Q 2388 3097 2138 3097 
Q 1578 3097 1268 2742 
Q 959 2388 959 1747 
Q 959 1106 1268 751 
Q 1578 397 2138 397 
Q 2388 397 2633 464 
Q 2878 531 3122 666 
L 3122 134 
Q 2881 22 2623 -34 
Q 2366 -91 2075 -91 
Q 1284 -91 818 406 
Q 353 903 353 1747 
Q 353 2603 823 3093 
Q 1294 3584 2113 3584 
Q 2378 3584 2631 3529 
Q 2884 3475 3122 3366 
z
" transform="scale(0.015625)"/>
      <path id="DejaVuSans-44" d="M 2194 1759 
Q 1497 1759 1228 1600 
Q 959 1441 959 1056 
Q 959 750 1161 570 
Q 1363 391 1709 391 
Q 2188 391 2477 730 
Q 2766 1069 2766 1631 
L 2766 1759 
L 2194 1759 
z
M 3341 1997 
L 3341 0 
L 2766 0 
L 2766 531 
Q 2569 213 2275 61 
Q 1981 -91 1556 -91 
Q 1019 -91 701 211 
Q 384 513 384 1019 
Q 384 1609 779 1909 
Q 1175 2209 1959 2209 
L 2766 2209 
L 2766 2266 
Q 2766 2663 2505 2880 
Q 2244 3097 1772 3097 
Q 1472 3097 1187 3025 
Q 903 2953 641 2809 
L 641 3341 
Q 956 3463 1253 3523 
Q 1550 3584 1831 3584 
Q 2591 3584 2966 3190 
Q 3341 2797 3341 1997 
z
" transform="scale(0.015625)"/>
      <path id="DejaVuSans-4f" d="M 603 4863 
L 1178 4863 
L 1178 0 
L 603 0 
L 603 4863 
z
" transform="scale(0.015625)"/>
      <path id="DejaVuSans-3" transform="scale(0.015625)"/>
      <path id="DejaVuSans-5b" d="M 3513 3500 
L 2247 1797 
L 3578 0 
L 2900 0 
L 1881 1375 
L 863 0 
L 184 0 
L 1544 1831 
L 300 3500 
L 978 3500 
L 1906 2253 
L 2834 3500 
L 3513 3500 
z
" transform="scale(0.015625)"/>
      <path id="DejaVuSans-1b" d="M 2034 2216 
Q 1584 2216 1326 1975 
Q 1069 1734 1069 1313 
Q 1069 891 1326 650 
Q 1584 409 2034 409 
Q 2484 409 2743 651 
Q 3003 894 3003 1313 
Q 3003 1734 2745 1975 
Q 2488 2216 2034 2216 
z
M 1403 2484 
Q 997 2584 770 2862 
Q 544 3141 544 3541 
Q 544 4100 942 4425 
Q 1341 4750 2034 4750 
Q 2731 4750 3128 4425 
Q 3525 4100 3525 3541 
Q 3525 3141 3298 2862 
Q 3072 2584 2669 2484 
Q 3125 2378 3379 2068 
Q 3634 1759 3634 1313 
Q 3634 634 3220 271 
Q 2806 -91 2034 -91 
Q 1263 -91 848 271 
Q 434 634 434 1313 
Q 434 1759 690 2068 
Q 947 2378 1403 2484 
z
M 1172 3481 
Q 1172 3119 1398 2916 
Q 1625 2713 2034 2713 
Q 2441 2713 2670 2916 
Q 2900 3119 2900 3481 
Q 2900 3844 2670 4047 
Q 2441 4250 2034 4250 
Q 1625 4250 1398 4047 
Q 1172 3844 1172 3481 
z
" transform="scale(0.015625)"/>
      <path id="DejaVuSans-19" d="M 2113 2584 
Q 1688 2584 1439 2293 
Q 1191 2003 1191 1497 
Q 1191 994 1439 701 
Q 1688 409 2113 409 
Q 2538 409 2786 701 
Q 3034 994 3034 1497 
Q 3034 2003 2786 2293 
Q 2538 2584 2113 2584 
z
M 3366 4563 
L 3366 3988 
Q 3128 4100 2886 4159 
Q 2644 4219 2406 4219 
Q 1781 4219 1451 3797 
Q 1122 3375 1075 2522 
Q 1259 2794 1537 2939 
Q 1816 3084 2150 3084 
Q 2853 3084 3261 2657 
Q 3669 2231 3669 1497 
Q 3669 778 3244 343 
Q 2819 -91 2113 -91 
Q 1303 -91 875 529 
Q 447 1150 447 2328 
Q 447 3434 972 4092 
Q 1497 4750 2381 4750 
Q 2619 4750 2861 4703 
Q 3103 4656 3366 4563 
z
" transform="scale(0.015625)"/>
      <path id="DejaVuSans-10" d="M 313 2009 
L 1997 2009 
L 1997 1497 
L 313 1497 
L 313 2009 
z
" transform="scale(0.015625)"/>
      <path id="DejaVuSans-17" d="M 2419 4116 
L 825 1625 
L 2419 1625 
L 2419 4116 
z
M 2253 4666 
L 3047 4666 
L 3047 1625 
L 3713 1625 
L 3713 1100 
L 3047 1100 
L 3047 0 
L 2419 0 
L 2419 1100 
L 313 1100 
L 313 1709 
L 2253 4666 
z
" transform="scale(0.015625)"/>
     </defs>
     <use xlink:href="#DejaVuSans-2f"/>
     <use xlink:href="#DejaVuSans-52" transform="translate(53.96875 0)"/>
     <use xlink:href="#DejaVuSans-46" transform="translate(115.15625 0)"/>
     <use xlink:href="#DejaVuSans-44" transform="translate(170.140625 0)"/>
     <use xlink:href="#DejaVuSans-4f" transform="translate(231.421875 0)"/>
     <use xlink:href="#DejaVuSans-3" transform="translate(259.203125 0)"/>
     <use xlink:href="#DejaVuSans-5b" transform="translate(290.984375 0)"/>
     <use xlink:href="#DejaVuSans-1b" transform="translate(350.171875 0)"/>
     <use xlink:href="#DejaVuSans-19" transform="translate(413.796875 0)"/>
     <use xlink:href="#DejaVuSans-10" transform="translate(477.421875 0)"/>
     <use xlink:href="#DejaVuSans-19" transform="translate(513.5 0)"/>
     <use xlink:href="#DejaVuSans-17" transform="translate(577.125 0)"/>
    </g>
    <!-- software TPM -->
    <g style="fill: #17212b" transform="translate(16.359524 77.649451) scale(0.082 -0.082)">
     <defs>
      <path id="DejaVuSans-56" d="M 2834 3397 
L 2834 2853 
Q 2591 2978 2328 3040 
Q 2066 3103 1784 3103 
Q 1356 3103 1142 2972 
Q 928 2841 928 2578 
Q 928 2378 1081 2264 
Q 1234 2150 1697 2047 
L 1894 2003 
Q 2506 1872 2764 1633 
Q 3022 1394 3022 966 
Q 3022 478 2636 193 
Q 2250 -91 1575 -91 
Q 1294 -91 989 -36 
Q 684 19 347 128 
L 347 722 
Q 666 556 975 473 
Q 1284 391 1588 391 
Q 1994 391 2212 530 
Q 2431 669 2431 922 
Q 2431 1156 2273 1281 
Q 2116 1406 1581 1522 
L 1381 1569 
Q 847 1681 609 1914 
Q 372 2147 372 2553 
Q 372 3047 722 3315 
Q 1072 3584 1716 3584 
Q 2034 3584 2315 3537 
Q 2597 3491 2834 3397 
z
" transform="scale(0.015625)"/>
      <path id="DejaVuSans-49" d="M 2375 4863 
L 2375 4384 
L 1825 4384 
Q 1516 4384 1395 4259 
Q 1275 4134 1275 3809 
L 1275 3500 
L 2222 3500 
L 2222 3053 
L 1275 3053 
L 1275 0 
L 697 0 
L 697 3053 
L 147 3053 
L 147 3500 
L 697 3500 
L 697 3744 
Q 697 4328 969 4595 
Q 1241 4863 1831 4863 
L 2375 4863 
z
" transform="scale(0.015625)"/>
      <path id="DejaVuSans-57" d="M 1172 4494 
L 1172 3500 
L 2356 3500 
L 2356 3053 
L 1172 3053 
L 1172 1153 
Q 1172 725 1289 603 
Q 1406 481 1766 481 
L 2356 481 
L 2356 0 
L 1766 0 
Q 1100 0 847 248 
Q 594 497 594 1153 
L 594 3053 
L 172 3053 
L 172 3500 
L 594 3500 
L 594 4494 
L 1172 4494 
z
" transform="scale(0.015625)"/>
      <path id="DejaVuSans-5a" d="M 269 3500 
L 844 3500 
L 1563 769 
L 2278 3500 
L 2956 3500 
L 3675 769 
L 4391 3500 
L 4966 3500 
L 4050 0 
L 3372 0 
L 2619 2869 
L 1863 0 
L 1184 0 
L 269 3500 
z
" transform="scale(0.015625)"/>
      <path id="DejaVuSans-55" d="M 2631 2963 
Q 2534 3019 2420 3045 
Q 2306 3072 2169 3072 
Q 1681 3072 1420 2755 
Q 1159 2438 1159 1844 
L 1159 0 
L 581 0 
L 581 3500 
L 1159 3500 
L 1159 2956 
Q 1341 3275 1631 3429 
Q 1922 3584 2338 3584 
Q 2397 3584 2469 3576 
Q 2541 3569 2628 3553 
L 2631 2963 
z
" transform="scale(0.015625)"/>
      <path id="DejaVuSans-48" d="M 3597 1894 
L 3597 1613 
L 953 1613 
Q 991 1019 1311 708 
Q 1631 397 2203 397 
Q 2534 397 2845 478 
Q 3156 559 3463 722 
L 3463 178 
Q 3153 47 2828 -22 
Q 2503 -91 2169 -91 
Q 1331 -91 842 396 
Q 353 884 353 1716 
Q 353 2575 817 3079 
Q 1281 3584 2069 3584 
Q 2775 3584 3186 3129 
Q 3597 2675 3597 1894 
z
M 3022 2063 
Q 3016 2534 2758 2815 
Q 2500 3097 2075 3097 
Q 1594 3097 1305 2825 
Q 1016 2553 972 2059 
L 3022 2063 
z
" transform="scale(0.015625)"/>
      <path id="DejaVuSans-37" d="M -19 4666 
L 3928 4666 
L 3928 4134 
L 2272 4134 
L 2272 0 
L 1638 0 
L 1638 4134 
L -19 4134 
L -19 4666 
z
" transform="scale(0.015625)"/>
      <path id="DejaVuSans-33" d="M 1259 4147 
L 1259 2394 
L 2053 2394 
Q 2494 2394 2734 2622 
Q 2975 2850 2975 3272 
Q 2975 3691 2734 3919 
Q 2494 4147 2053 4147 
L 1259 4147 
z
M 628 4666 
L 2053 4666 
Q 2838 4666 3239 4311 
Q 3641 3956 3641 3272 
Q 3641 2581 3239 2228 
Q 2838 1875 2053 1875 
L 1259 1875 
L 1259 0 
L 628 0 
L 628 4666 
z
" transform="scale(0.015625)"/>
      <path id="DejaVuSans-30" d="M 628 4666 
L 1569 4666 
L 2759 1491 
L 3956 4666 
L 4897 4666 
L 4897 0 
L 4281 0 
L 4281 4097 
L 3078 897 
L 2444 897 
L 1241 4097 
L 1241 0 
L 628 0 
L 628 4666 
z
" transform="scale(0.015625)"/>
     </defs>
     <use xlink:href="#DejaVuSans-56"/>
     <use xlink:href="#DejaVuSans-52" transform="translate(52.09375 0)"/>
     <use xlink:href="#DejaVuSans-49" transform="translate(113.28125 0)"/>
     <use xlink:href="#DejaVuSans-57" transform="translate(146.734375 0)"/>
     <use xlink:href="#DejaVuSans-5a" transform="translate(185.9375 0)"/>
     <use xlink:href="#DejaVuSans-44" transform="translate(267.71875 0)"/>
     <use xlink:href="#DejaVuSans-55" transform="translate(329 0)"/>
     <use xlink:href="#DejaVuSans-48" transform="translate(367.90625 0)"/>
     <use xlink:href="#DejaVuSans-3" transform="translate(429.4375 0)"/>
     <use xlink:href="#DejaVuSans-37" transform="translate(461.21875 0)"/>
     <use xlink:href="#DejaVuSans-33" transform="translate(522.296875 0)"/>
     <use xlink:href="#DejaVuSans-30" transform="translate(582.59375 0)"/>
    </g>
   </g>
   <g id="text_8">
    <!-- 16 -->
    <g style="fill: #17212b" transform="translate(263.029179 72.728009) scale(0.082 -0.082)">
     <defs>
      <path id="DejaVuSans-14" d="M 794 531 
L 1825 531 
L 1825 4091 
L 703 3866 
L 703 4441 
L 1819 4666 
L 2450 4666 
L 2450 531 
L 3481 531 
L 3481 0 
L 794 0 
L 794 531 
z
" transform="scale(0.015625)"/>
     </defs>
     <use xlink:href="#DejaVuSans-14"/>
     <use xlink:href="#DejaVuSans-19" transform="translate(63.625 0)"/>
    </g>
   </g>
   <g id="text_9">
    <!-- 104 -->
    <g style="fill: #17212b" transform="translate(352.015792 72.728009) scale(0.082 -0.082)">
     <defs>
      <path id="DejaVuSans-13" d="M 2034 4250 
Q 1547 4250 1301 3770 
Q 1056 3291 1056 2328 
Q 1056 1369 1301 889 
Q 1547 409 2034 409 
Q 2525 409 2770 889 
Q 3016 1369 3016 2328 
Q 3016 3291 2770 3770 
Q 2525 4250 2034 4250 
z
M 2034 4750 
Q 2819 4750 3233 4129 
Q 3647 3509 3647 2328 
Q 3647 1150 3233 529 
Q 2819 -91 2034 -91 
Q 1250 -91 836 529 
Q 422 1150 422 2328 
Q 422 3509 836 4129 
Q 1250 4750 2034 4750 
z
" transform="scale(0.015625)"/>
     </defs>
     <use xlink:href="#DejaVuSans-14"/>
     <use xlink:href="#DejaVuSans-13" transform="translate(63.625 0)"/>
     <use xlink:href="#DejaVuSans-17" transform="translate(127.25 0)"/>
    </g>
   </g>
   <g id="text_10">
    <!-- 104 -->
    <g style="fill: #17212b" transform="translate(443.61103 72.728009) scale(0.082 -0.082)">
     <use xlink:href="#DejaVuSans-14"/>
     <use xlink:href="#DejaVuSans-13" transform="translate(63.625 0)"/>
     <use xlink:href="#DejaVuSans-17" transform="translate(127.25 0)"/>
    </g>
   </g>
   <g id="text_11">
    <!-- 372 -->
    <g style="fill: #17212b" transform="translate(535.206268 72.728009) scale(0.082 -0.082)">
     <defs>
      <path id="DejaVuSans-16" d="M 2597 2516 
Q 3050 2419 3304 2112 
Q 3559 1806 3559 1356 
Q 3559 666 3084 287 
Q 2609 -91 1734 -91 
Q 1441 -91 1130 -33 
Q 819 25 488 141 
L 488 750 
Q 750 597 1062 519 
Q 1375 441 1716 441 
Q 2309 441 2620 675 
Q 2931 909 2931 1356 
Q 2931 1769 2642 2001 
Q 2353 2234 1838 2234 
L 1294 2234 
L 1294 2753 
L 1863 2753 
Q 2328 2753 2575 2939 
Q 2822 3125 2822 3475 
Q 2822 3834 2567 4026 
Q 2313 4219 1838 4219 
Q 1578 4219 1281 4162 
Q 984 4106 628 3988 
L 628 4550 
Q 988 4650 1302 4700 
Q 1616 4750 1894 4750 
Q 2613 4750 3031 4423 
Q 3450 4097 3450 3541 
Q 3450 3153 3228 2886 
Q 3006 2619 2597 2516 
z
" transform="scale(0.015625)"/>
      <path id="DejaVuSans-1a" d="M 525 4666 
L 3525 4666 
L 3525 4397 
L 1831 0 
L 1172 0 
L 2766 4134 
L 525 4134 
L 525 4666 
z
" transform="scale(0.015625)"/>
      <path id="DejaVuSans-15" d="M 1228 531 
L 3431 531 
L 3431 0 
L 469 0 
L 469 531 
Q 828 903 1448 1529 
Q 2069 2156 2228 2338 
Q 2531 2678 2651 2914 
Q 2772 3150 2772 3378 
Q 2772 3750 2511 3984 
Q 2250 4219 1831 4219 
Q 1534 4219 1204 4116 
Q 875 4013 500 3803 
L 500 4441 
Q 881 4594 1212 4672 
Q 1544 4750 1819 4750 
Q 2544 4750 2975 4387 
Q 3406 4025 3406 3419 
Q 3406 3131 3298 2873 
Q 3191 2616 2906 2266 
Q 2828 2175 2409 1742 
Q 1991 1309 1228 531 
z
" transform="scale(0.015625)"/>
     </defs>
     <use xlink:href="#DejaVuSans-16"/>
     <use xlink:href="#DejaVuSans-1a" transform="translate(63.625 0)"/>
     <use xlink:href="#DejaVuSans-15" transform="translate(127.25 0)"/>
    </g>
   </g>
   <g id="text_12">
    <!-- 832/832 -->
    <g style="fill: #17212b" transform="translate(617.594443 72.728009) scale(0.082 -0.082)">
     <defs>
      <path id="DejaVuSans-12" d="M 1625 4666 
L 2156 4666 
L 531 -594 
L 0 -594 
L 1625 4666 
z
" transform="scale(0.015625)"/>
     </defs>
     <use xlink:href="#DejaVuSans-1b"/>
     <use xlink:href="#DejaVuSans-16" transform="translate(63.625 0)"/>
     <use xlink:href="#DejaVuSans-15" transform="translate(127.25 0)"/>
     <use xlink:href="#DejaVuSans-12" transform="translate(190.875 0)"/>
     <use xlink:href="#DejaVuSans-1b" transform="translate(224.5625 0)"/>
     <use xlink:href="#DejaVuSans-16" transform="translate(288.1875 0)"/>
     <use xlink:href="#DejaVuSans-15" transform="translate(351.8125 0)"/>
    </g>
   </g>
   <g id="text_13">
    <!-- 512/512 -->
    <g style="fill: #17212b" transform="translate(709.189682 72.728009) scale(0.082 -0.082)">
     <defs>
      <path id="DejaVuSans-18" d="M 691 4666 
L 3169 4666 
L 3169 4134 
L 1269 4134 
L 1269 2991 
Q 1406 3038 1543 3061 
Q 1681 3084 1819 3084 
Q 2600 3084 3056 2656 
Q 3513 2228 3513 1497 
Q 3513 744 3044 326 
Q 2575 -91 1722 -91 
Q 1428 -91 1123 -41 
Q 819 9 494 109 
L 494 744 
Q 775 591 1075 516 
Q 1375 441 1709 441 
Q 2250 441 2565 725 
Q 2881 1009 2881 1497 
Q 2881 1984 2565 2268 
Q 2250 2553 1709 2553 
Q 1456 2553 1204 2497 
Q 953 2441 691 2322 
L 691 4666 
z
" transform="scale(0.015625)"/>
     </defs>
     <use xlink:href="#DejaVuSans-18"/>
     <use xlink:href="#DejaVuSans-14" transform="translate(63.625 0)"/>
     <use xlink:href="#DejaVuSans-15" transform="translate(127.25 0)"/>
     <use xlink:href="#DejaVuSans-12" transform="translate(190.875 0)"/>
     <use xlink:href="#DejaVuSans-18" transform="translate(224.5625 0)"/>
     <use xlink:href="#DejaVuSans-14" transform="translate(288.1875 0)"/>
     <use xlink:href="#DejaVuSans-15" transform="translate(351.8125 0)"/>
    </g>
   </g>
   <g id="text_14">
    <!-- 8 fresh swtpm roots; one physical host -->
    <g style="fill: #4e5c6b" transform="translate(16.359524 91.829165) scale(0.068 -0.068)">
     <defs>
      <path id="DejaVuSans-4b" d="M 3513 2113 
L 3513 0 
L 2938 0 
L 2938 2094 
Q 2938 2591 2744 2837 
Q 2550 3084 2163 3084 
Q 1697 3084 1428 2787 
Q 1159 2491 1159 1978 
L 1159 0 
L 581 0 
L 581 4863 
L 1159 4863 
L 1159 2956 
Q 1366 3272 1645 3428 
Q 1925 3584 2291 3584 
Q 2894 3584 3203 3211 
Q 3513 2838 3513 2113 
z
" transform="scale(0.015625)"/>
      <path id="DejaVuSans-53" d="M 1159 525 
L 1159 -1331 
L 581 -1331 
L 581 3500 
L 1159 3500 
L 1159 2969 
Q 1341 3281 1617 3432 
Q 1894 3584 2278 3584 
Q 2916 3584 3314 3078 
Q 3713 2572 3713 1747 
Q 3713 922 3314 415 
Q 2916 -91 2278 -91 
Q 1894 -91 1617 61 
Q 1341 213 1159 525 
z
M 3116 1747 
Q 3116 2381 2855 2742 
Q 2594 3103 2138 3103 
Q 1681 3103 1420 2742 
Q 1159 2381 1159 1747 
Q 1159 1113 1420 752 
Q 1681 391 2138 391 
Q 2594 391 2855 752 
Q 3116 1113 3116 1747 
z
" transform="scale(0.015625)"/>
      <path id="DejaVuSans-50" d="M 3328 2828 
Q 3544 3216 3844 3400 
Q 4144 3584 4550 3584 
Q 5097 3584 5394 3201 
Q 5691 2819 5691 2113 
L 5691 0 
L 5113 0 
L 5113 2094 
Q 5113 2597 4934 2840 
Q 4756 3084 4391 3084 
Q 3944 3084 3684 2787 
Q 3425 2491 3425 1978 
L 3425 0 
L 2847 0 
L 2847 2094 
Q 2847 2600 2669 2842 
Q 2491 3084 2119 3084 
Q 1678 3084 1418 2786 
Q 1159 2488 1159 1978 
L 1159 0 
L 581 0 
L 581 3500 
L 1159 3500 
L 1159 2956 
Q 1356 3278 1631 3431 
Q 1906 3584 2284 3584 
Q 2666 3584 2933 3390 
Q 3200 3197 3328 2828 
z
" transform="scale(0.015625)"/>
      <path id="DejaVuSans-1e" d="M 750 3309 
L 1409 3309 
L 1409 2516 
L 750 2516 
L 750 3309 
z
M 750 794 
L 1409 794 
L 1409 256 
L 897 -744 
L 494 -744 
L 750 256 
L 750 794 
z
" transform="scale(0.015625)"/>
      <path id="DejaVuSans-51" d="M 3513 2113 
L 3513 0 
L 2938 0 
L 2938 2094 
Q 2938 2591 2744 2837 
Q 2550 3084 2163 3084 
Q 1697 3084 1428 2787 
Q 1159 2491 1159 1978 
L 1159 0 
L 581 0 
L 581 3500 
L 1159 3500 
L 1159 2956 
Q 1366 3272 1645 3428 
Q 1925 3584 2291 3584 
Q 2894 3584 3203 3211 
Q 3513 2838 3513 2113 
z
" transform="scale(0.015625)"/>
      <path id="DejaVuSans-5c" d="M 2059 -325 
Q 1816 -950 1584 -1140 
Q 1353 -1331 966 -1331 
L 506 -1331 
L 506 -850 
L 844 -850 
Q 1081 -850 1212 -737 
Q 1344 -625 1503 -206 
L 1606 56 
L 191 3500 
L 800 3500 
L 1894 763 
L 2988 3500 
L 3597 3500 
L 2059 -325 
z
" transform="scale(0.015625)"/>
      <path id="DejaVuSans-4c" d="M 603 3500 
L 1178 3500 
L 1178 0 
L 603 0 
L 603 3500 
z
M 603 4863 
L 1178 4863 
L 1178 4134 
L 603 4134 
L 603 4863 
z
" transform="scale(0.015625)"/>
     </defs>
     <use xlink:href="#DejaVuSans-1b"/>
     <use xlink:href="#DejaVuSans-3" transform="translate(63.625 0)"/>
     <use xlink:href="#DejaVuSans-49" transform="translate(95.40625 0)"/>
     <use xlink:href="#DejaVuSans-55" transform="translate(130.609375 0)"/>
     <use xlink:href="#DejaVuSans-48" transform="translate(169.515625 0)"/>
     <use xlink:href="#DejaVuSans-56" transform="translate(231.046875 0)"/>
     <use xlink:href="#DejaVuSans-4b" transform="translate(283.140625 0)"/>
     <use xlink:href="#DejaVuSans-3" transform="translate(346.515625 0)"/>
     <use xlink:href="#DejaVuSans-56" transform="translate(378.296875 0)"/>
     <use xlink:href="#DejaVuSans-5a" transform="translate(430.390625 0)"/>
     <use xlink:href="#DejaVuSans-57" transform="translate(512.171875 0)"/>
     <use xlink:href="#DejaVuSans-53" transform="translate(551.375 0)"/>
     <use xlink:href="#DejaVuSans-50" transform="translate(614.859375 0)"/>
     <use xlink:href="#DejaVuSans-3" transform="translate(712.265625 0)"/>
     <use xlink:href="#DejaVuSans-55" transform="translate(744.046875 0)"/>
     <use xlink:href="#DejaVuSans-52" transform="translate(782.953125 0)"/>
     <use xlink:href="#DejaVuSans-52" transform="translate(844.140625 0)"/>
     <use xlink:href="#DejaVuSans-57" transform="translate(905.328125 0)"/>
     <use xlink:href="#DejaVuSans-56" transform="translate(944.53125 0)"/>
     <use xlink:href="#DejaVuSans-1e" transform="translate(996.625 0)"/>
     <use xlink:href="#DejaVuSans-3" transform="translate(1030.3125 0)"/>
     <use xlink:href="#DejaVuSans-52" transform="translate(1062.09375 0)"/>
     <use xlink:href="#DejaVuSans-51" transform="translate(1123.28125 0)"/>
     <use xlink:href="#DejaVuSans-48" transform="translate(1186.65625 0)"/>
     <use xlink:href="#DejaVuSans-3" transform="translate(1248.1875 0)"/>
     <use xlink:href="#DejaVuSans-53" transform="translate(1279.96875 0)"/>
     <use xlink:href="#DejaVuSans-4b" transform="translate(1343.453125 0)"/>
     <use xlink:href="#DejaVuSans-5c" transform="translate(1406.828125 0)"/>
     <use xlink:href="#DejaVuSans-56" transform="translate(1466.015625 0)"/>
     <use xlink:href="#DejaVuSans-4c" transform="translate(1518.109375 0)"/>
     <use xlink:href="#DejaVuSans-46" transform="translate(1545.890625 0)"/>
     <use xlink:href="#DejaVuSans-44" transform="translate(1600.875 0)"/>
     <use xlink:href="#DejaVuSans-4f" transform="translate(1662.15625 0)"/>
     <use xlink:href="#DejaVuSans-3" transform="translate(1689.9375 0)"/>
     <use xlink:href="#DejaVuSans-4b" transform="translate(1721.71875 0)"/>
     <use xlink:href="#DejaVuSans-52" transform="translate(1785.09375 0)"/>
     <use xlink:href="#DejaVuSans-56" transform="translate(1846.28125 0)"/>
     <use xlink:href="#DejaVuSans-57" transform="translate(1898.375 0)"/>
    </g>
   </g>
   <g id="text_15">
    <!-- Hosted x86-64 -->
    <g style="fill: #17212b" transform="translate(16.359524 119.772726) scale(0.082 -0.082)">
     <defs>
      <path id="DejaVuSans-2b" d="M 628 4666 
L 1259 4666 
L 1259 2753 
L 3553 2753 
L 3553 4666 
L 4184 4666 
L 4184 0 
L 3553 0 
L 3553 2222 
L 1259 2222 
L 1259 0 
L 628 0 
L 628 4666 
z
" transform="scale(0.015625)"/>
      <path id="DejaVuSans-47" d="M 2906 2969 
L 2906 4863 
L 3481 4863 
L 3481 0 
L 2906 0 
L 2906 525 
Q 2725 213 2448 61 
Q 2172 -91 1784 -91 
Q 1150 -91 751 415 
Q 353 922 353 1747 
Q 353 2572 751 3078 
Q 1150 3584 1784 3584 
Q 2172 3584 2448 3432 
Q 2725 3281 2906 2969 
z
M 947 1747 
Q 947 1113 1208 752 
Q 1469 391 1925 391 
Q 2381 391 2643 752 
Q 2906 1113 2906 1747 
Q 2906 2381 2643 2742 
Q 2381 3103 1925 3103 
Q 1469 3103 1208 2742 
Q 947 2381 947 1747 
z
" transform="scale(0.015625)"/>
     </defs>
     <use xlink:href="#DejaVuSans-2b"/>
     <use xlink:href="#DejaVuSans-52" transform="translate(75.203125 0)"/>
     <use xlink:href="#DejaVuSans-56" transform="translate(136.390625 0)"/>
     <use xlink:href="#DejaVuSans-57" transform="translate(188.484375 0)"/>
     <use xlink:href="#DejaVuSans-48" transform="translate(227.6875 0)"/>
     <use xlink:href="#DejaVuSans-47" transform="translate(289.21875 0)"/>
     <use xlink:href="#DejaVuSans-3" transform="translate(352.703125 0)"/>
     <use xlink:href="#DejaVuSans-5b" transform="translate(384.484375 0)"/>
     <use xlink:href="#DejaVuSans-1b" transform="translate(443.671875 0)"/>
     <use xlink:href="#DejaVuSans-19" transform="translate(507.296875 0)"/>
     <use xlink:href="#DejaVuSans-10" transform="translate(570.921875 0)"/>
     <use xlink:href="#DejaVuSans-19" transform="translate(607 0)"/>
     <use xlink:href="#DejaVuSans-17" transform="translate(670.625 0)"/>
    </g>
    <!-- job VM -->
    <g style="fill: #17212b" transform="translate(16.359524 129.614968) scale(0.082 -0.082)">
     <defs>
      <path id="DejaVuSans-4d" d="M 603 3500 
L 1178 3500 
L 1178 -63 
Q 1178 -731 923 -1031 
Q 669 -1331 103 -1331 
L -116 -1331 
L -116 -844 
L 38 -844 
Q 366 -844 484 -692 
Q 603 -541 603 -63 
L 603 3500 
z
M 603 4863 
L 1178 4863 
L 1178 4134 
L 603 4134 
L 603 4863 
z
" transform="scale(0.015625)"/>
      <path id="DejaVuSans-45" d="M 3116 1747 
Q 3116 2381 2855 2742 
Q 2594 3103 2138 3103 
Q 1681 3103 1420 2742 
Q 1159 2381 1159 1747 
Q 1159 1113 1420 752 
Q 1681 391 2138 391 
Q 2594 391 2855 752 
Q 3116 1113 3116 1747 
z
M 1159 2969 
Q 1341 3281 1617 3432 
Q 1894 3584 2278 3584 
Q 2916 3584 3314 3078 
Q 3713 2572 3713 1747 
Q 3713 922 3314 415 
Q 2916 -91 2278 -91 
Q 1894 -91 1617 61 
Q 1341 213 1159 525 
L 1159 0 
L 581 0 
L 581 4863 
L 1159 4863 
L 1159 2969 
z
" transform="scale(0.015625)"/>
      <path id="DejaVuSans-39" d="M 1831 0 
L 50 4666 
L 709 4666 
L 2188 738 
L 3669 4666 
L 4325 4666 
L 2547 0 
L 1831 0 
z
" transform="scale(0.015625)"/>
     </defs>
     <use xlink:href="#DejaVuSans-4d"/>
     <use xlink:href="#DejaVuSans-52" transform="translate(27.78125 0)"/>
     <use xlink:href="#DejaVuSans-45" transform="translate(88.96875 0)"/>
     <use xlink:href="#DejaVuSans-3" transform="translate(152.453125 0)"/>
     <use xlink:href="#DejaVuSans-39" transform="translate(184.234375 0)"/>
     <use xlink:href="#DejaVuSans-30" transform="translate(252.640625 0)"/>
    </g>
   </g>
   <g id="text_16">
    <!-- 16 -->
    <g style="fill: #17212b" transform="translate(263.029179 124.693526) scale(0.082 -0.082)">
     <use xlink:href="#DejaVuSans-14"/>
     <use xlink:href="#DejaVuSans-19" transform="translate(63.625 0)"/>
    </g>
   </g>
   <g id="text_17">
    <!-- 104 -->
    <g style="fill: #17212b" transform="translate(352.015792 124.693526) scale(0.082 -0.082)">
     <use xlink:href="#DejaVuSans-14"/>
     <use xlink:href="#DejaVuSans-13" transform="translate(63.625 0)"/>
     <use xlink:href="#DejaVuSans-17" transform="translate(127.25 0)"/>
    </g>
   </g>
   <g id="text_18">
    <!-- 104 -->
    <g style="fill: #17212b" transform="translate(443.61103 124.693526) scale(0.082 -0.082)">
     <use xlink:href="#DejaVuSans-14"/>
     <use xlink:href="#DejaVuSans-13" transform="translate(63.625 0)"/>
     <use xlink:href="#DejaVuSans-17" transform="translate(127.25 0)"/>
    </g>
   </g>
   <g id="text_19">
    <!-- 372 -->
    <g style="fill: #17212b" transform="translate(535.206268 124.693526) scale(0.082 -0.082)">
     <use xlink:href="#DejaVuSans-16"/>
     <use xlink:href="#DejaVuSans-1a" transform="translate(63.625 0)"/>
     <use xlink:href="#DejaVuSans-15" transform="translate(127.25 0)"/>
    </g>
   </g>
   <g id="text_20">
    <!-- — -->
    <g style="fill: #17212b" transform="translate(630.527381 124.693526) scale(0.082 -0.082)">
     <defs>
      <path id="DejaVuSans-af6" d="M 313 1978 
L 6088 1978 
L 6088 1528 
L 313 1528 
L 313 1978 
z
" transform="scale(0.015625)"/>
     </defs>
     <use xlink:href="#DejaVuSans-af6"/>
    </g>
   </g>
   <g id="text_21">
    <!-- — -->
    <g style="fill: #17212b" transform="translate(722.122619 124.693526) scale(0.082 -0.082)">
     <use xlink:href="#DejaVuSans-af6"/>
    </g>
   </g>
   <g id="text_22">
    <!-- four-lane contract 20/20; reported architecture; physical host unknown -->
    <g style="fill: #4e5c6b" transform="translate(16.359524 143.794682) scale(0.068 -0.068)">
     <defs>
      <path id="DejaVuSans-58" d="M 544 1381 
L 544 3500 
L 1119 3500 
L 1119 1403 
Q 1119 906 1312 657 
Q 1506 409 1894 409 
Q 2359 409 2629 706 
Q 2900 1003 2900 1516 
L 2900 3500 
L 3475 3500 
L 3475 0 
L 2900 0 
L 2900 538 
Q 2691 219 2414 64 
Q 2138 -91 1772 -91 
Q 1169 -91 856 284 
Q 544 659 544 1381 
z
M 1991 3584 
L 1991 3584 
z
" transform="scale(0.015625)"/>
      <path id="DejaVuSans-4e" d="M 581 4863 
L 1159 4863 
L 1159 1991 
L 2875 3500 
L 3609 3500 
L 1753 1863 
L 3688 0 
L 2938 0 
L 1159 1709 
L 1159 0 
L 581 0 
L 581 4863 
z
" transform="scale(0.015625)"/>
     </defs>
     <use xlink:href="#DejaVuSans-49"/>
     <use xlink:href="#DejaVuSans-52" transform="translate(35.203125 0)"/>
     <use xlink:href="#DejaVuSans-58" transform="translate(96.390625 0)"/>
     <use xlink:href="#DejaVuSans-55" transform="translate(159.765625 0)"/>
     <use xlink:href="#DejaVuSans-10" transform="translate(194.484375 0)"/>
     <use xlink:href="#DejaVuSans-4f" transform="translate(230.5625 0)"/>
     <use xlink:href="#DejaVuSans-44" transform="translate(258.34375 0)"/>
     <use xlink:href="#DejaVuSans-51" transform="translate(319.625 0)"/>
     <use xlink:href="#DejaVuSans-48" transform="translate(383 0)"/>
     <use xlink:href="#DejaVuSans-3" transform="translate(444.53125 0)"/>
     <use xlink:href="#DejaVuSans-46" transform="translate(476.3125 0)"/>
     <use xlink:href="#DejaVuSans-52" transform="translate(531.296875 0)"/>
     <use xlink:href="#DejaVuSans-51" transform="translate(592.484375 0)"/>
     <use xlink:href="#DejaVuSans-57" transform="translate(655.859375 0)"/>
     <use xlink:href="#DejaVuSans-55" transform="translate(695.0625 0)"/>
     <use xlink:href="#DejaVuSans-44" transform="translate(736.171875 0)"/>
     <use xlink:href="#DejaVuSans-46" transform="translate(797.453125 0)"/>
     <use xlink:href="#DejaVuSans-57" transform="translate(852.4375 0)"/>
     <use xlink:href="#DejaVuSans-3" transform="translate(891.640625 0)"/>
     <use xlink:href="#DejaVuSans-15" transform="translate(923.421875 0)"/>
     <use xlink:href="#DejaVuSans-13" transform="translate(987.046875 0)"/>
     <use xlink:href="#DejaVuSans-12" transform="translate(1050.671875 0)"/>
     <use xlink:href="#DejaVuSans-15" transform="translate(1084.359375 0)"/>
     <use xlink:href="#DejaVuSans-13" transform="translate(1147.984375 0)"/>
     <use xlink:href="#DejaVuSans-1e" transform="translate(1211.609375 0)"/>
     <use xlink:href="#DejaVuSans-3" transform="translate(1245.296875 0)"/>
     <use xlink:href="#DejaVuSans-55" transform="translate(1277.078125 0)"/>
     <use xlink:href="#DejaVuSans-48" transform="translate(1315.984375 0)"/>
     <use xlink:href="#DejaVuSans-53" transform="translate(1377.515625 0)"/>
     <use xlink:href="#DejaVuSans-52" transform="translate(1441 0)"/>
     <use xlink:href="#DejaVuSans-55" transform="translate(1502.1875 0)"/>
     <use xlink:href="#DejaVuSans-57" transform="translate(1543.296875 0)"/>
     <use xlink:href="#DejaVuSans-48" transform="translate(1582.5 0)"/>
     <use xlink:href="#DejaVuSans-47" transform="translate(1644.03125 0)"/>
     <use xlink:href="#DejaVuSans-3" transform="translate(1707.515625 0)"/>
     <use xlink:href="#DejaVuSans-44" transform="translate(1739.296875 0)"/>
     <use xlink:href="#DejaVuSans-55" transform="translate(1800.578125 0)"/>
     <use xlink:href="#DejaVuSans-46" transform="translate(1839.484375 0)"/>
     <use xlink:href="#DejaVuSans-4b" transform="translate(1894.46875 0)"/>
     <use xlink:href="#DejaVuSans-4c" transform="translate(1957.84375 0)"/>
     <use xlink:href="#DejaVuSans-57" transform="translate(1985.625 0)"/>
     <use xlink:href="#DejaVuSans-48" transform="translate(2024.828125 0)"/>
     <use xlink:href="#DejaVuSans-46" transform="translate(2086.359375 0)"/>
     <use xlink:href="#DejaVuSans-57" transform="translate(2141.34375 0)"/>
     <use xlink:href="#DejaVuSans-58" transform="translate(2180.546875 0)"/>
     <use xlink:href="#DejaVuSans-55" transform="translate(2243.921875 0)"/>
     <use xlink:href="#DejaVuSans-48" transform="translate(2282.828125 0)"/>
     <use xlink:href="#DejaVuSans-1e" transform="translate(2344.359375 0)"/>
     <use xlink:href="#DejaVuSans-3" transform="translate(2378.046875 0)"/>
     <use xlink:href="#DejaVuSans-53" transform="translate(2409.828125 0)"/>
     <use xlink:href="#DejaVuSans-4b" transform="translate(2473.3125 0)"/>
     <use xlink:href="#DejaVuSans-5c" transform="translate(2536.6875 0)"/>
     <use xlink:href="#DejaVuSans-56" transform="translate(2595.875 0)"/>
     <use xlink:href="#DejaVuSans-4c" transform="translate(2647.96875 0)"/>
     <use xlink:href="#DejaVuSans-46" transform="translate(2675.75 0)"/>
     <use xlink:href="#DejaVuSans-44" transform="translate(2730.734375 0)"/>
     <use xlink:href="#DejaVuSans-4f" transform="translate(2792.015625 0)"/>
     <use xlink:href="#DejaVuSans-3" transform="translate(2819.796875 0)"/>
     <use xlink:href="#DejaVuSans-4b" transform="translate(2851.578125 0)"/>
     <use xlink:href="#DejaVuSans-52" transform="translate(2914.953125 0)"/>
     <use xlink:href="#DejaVuSans-56" transform="translate(2976.140625 0)"/>
     <use xlink:href="#DejaVuSans-57" transform="translate(3028.234375 0)"/>
     <use xlink:href="#DejaVuSans-3" transform="translate(3067.4375 0)"/>
     <use xlink:href="#DejaVuSans-58" transform="translate(3099.21875 0)"/>
     <use xlink:href="#DejaVuSans-51" transform="translate(3162.59375 0)"/>
     <use xlink:href="#DejaVuSans-4e" transform="translate(3225.96875 0)"/>
     <use xlink:href="#DejaVuSans-51" transform="translate(3283.875 0)"/>
     <use xlink:href="#DejaVuSans-52" transform="translate(3347.25 0)"/>
     <use xlink:href="#DejaVuSans-5a" transform="translate(3408.4375 0)"/>
     <use xlink:href="#DejaVuSans-51" transform="translate(3490.21875 0)"/>
    </g>
   </g>
   <g id="text_23">
    <!-- Hosted ARM64 -->
    <g style="fill: #17212b" transform="translate(16.359524 171.738243) scale(0.082 -0.082)">
     <defs>
      <path id="DejaVuSans-24" d="M 2188 4044 
L 1331 1722 
L 3047 1722 
L 2188 4044 
z
M 1831 4666 
L 2547 4666 
L 4325 0 
L 3669 0 
L 3244 1197 
L 1141 1197 
L 716 0 
L 50 0 
L 1831 4666 
z
" transform="scale(0.015625)"/>
      <path id="DejaVuSans-35" d="M 2841 2188 
Q 3044 2119 3236 1894 
Q 3428 1669 3622 1275 
L 4263 0 
L 3584 0 
L 2988 1197 
Q 2756 1666 2539 1819 
Q 2322 1972 1947 1972 
L 1259 1972 
L 1259 0 
L 628 0 
L 628 4666 
L 2053 4666 
Q 2853 4666 3247 4331 
Q 3641 3997 3641 3322 
Q 3641 2881 3436 2590 
Q 3231 2300 2841 2188 
z
M 1259 4147 
L 1259 2491 
L 2053 2491 
Q 2509 2491 2742 2702 
Q 2975 2913 2975 3322 
Q 2975 3731 2742 3939 
Q 2509 4147 2053 4147 
L 1259 4147 
z
" transform="scale(0.015625)"/>
     </defs>
     <use xlink:href="#DejaVuSans-2b"/>
     <use xlink:href="#DejaVuSans-52" transform="translate(75.203125 0)"/>
     <use xlink:href="#DejaVuSans-56" transform="translate(136.390625 0)"/>
     <use xlink:href="#DejaVuSans-57" transform="translate(188.484375 0)"/>
     <use xlink:href="#DejaVuSans-48" transform="translate(227.6875 0)"/>
     <use xlink:href="#DejaVuSans-47" transform="translate(289.21875 0)"/>
     <use xlink:href="#DejaVuSans-3" transform="translate(352.703125 0)"/>
     <use xlink:href="#DejaVuSans-24" transform="translate(384.484375 0)"/>
     <use xlink:href="#DejaVuSans-35" transform="translate(452.890625 0)"/>
     <use xlink:href="#DejaVuSans-30" transform="translate(522.375 0)"/>
     <use xlink:href="#DejaVuSans-19" transform="translate(608.65625 0)"/>
     <use xlink:href="#DejaVuSans-17" transform="translate(672.28125 0)"/>
    </g>
    <!-- job VM -->
    <g style="fill: #17212b" transform="translate(16.359524 181.580485) scale(0.082 -0.082)">
     <use xlink:href="#DejaVuSans-4d"/>
     <use xlink:href="#DejaVuSans-52" transform="translate(27.78125 0)"/>
     <use xlink:href="#DejaVuSans-45" transform="translate(88.96875 0)"/>
     <use xlink:href="#DejaVuSans-3" transform="translate(152.453125 0)"/>
     <use xlink:href="#DejaVuSans-39" transform="translate(184.234375 0)"/>
     <use xlink:href="#DejaVuSans-30" transform="translate(252.640625 0)"/>
    </g>
   </g>
   <g id="text_24">
    <!-- 16 -->
    <g style="fill: #17212b" transform="translate(263.029179 176.659044) scale(0.082 -0.082)">
     <use xlink:href="#DejaVuSans-14"/>
     <use xlink:href="#DejaVuSans-19" transform="translate(63.625 0)"/>
    </g>
   </g>
   <g id="text_25">
    <!-- 104 -->
    <g style="fill: #17212b" transform="translate(352.015792 176.659044) scale(0.082 -0.082)">
     <use xlink:href="#DejaVuSans-14"/>
     <use xlink:href="#DejaVuSans-13" transform="translate(63.625 0)"/>
     <use xlink:href="#DejaVuSans-17" transform="translate(127.25 0)"/>
    </g>
   </g>
   <g id="text_26">
    <!-- 104 -->
    <g style="fill: #17212b" transform="translate(443.61103 176.659044) scale(0.082 -0.082)">
     <use xlink:href="#DejaVuSans-14"/>
     <use xlink:href="#DejaVuSans-13" transform="translate(63.625 0)"/>
     <use xlink:href="#DejaVuSans-17" transform="translate(127.25 0)"/>
    </g>
   </g>
   <g id="text_27">
    <!-- 372 -->
    <g style="fill: #17212b" transform="translate(535.206268 176.659044) scale(0.082 -0.082)">
     <use xlink:href="#DejaVuSans-16"/>
     <use xlink:href="#DejaVuSans-1a" transform="translate(63.625 0)"/>
     <use xlink:href="#DejaVuSans-15" transform="translate(127.25 0)"/>
    </g>
   </g>
   <g id="text_28">
    <!-- — -->
    <g style="fill: #17212b" transform="translate(630.527381 176.659044) scale(0.082 -0.082)">
     <use xlink:href="#DejaVuSans-af6"/>
    </g>
   </g>
   <g id="text_29">
    <!-- — -->
    <g style="fill: #17212b" transform="translate(722.122619 176.659044) scale(0.082 -0.082)">
     <use xlink:href="#DejaVuSans-af6"/>
    </g>
   </g>
   <g id="text_30">
    <!-- four-lane contract 20/20; reported architecture; physical host unknown -->
    <g style="fill: #4e5c6b" transform="translate(16.359524 195.760199) scale(0.068 -0.068)">
     <use xlink:href="#DejaVuSans-49"/>
     <use xlink:href="#DejaVuSans-52" transform="translate(35.203125 0)"/>
     <use xlink:href="#DejaVuSans-58" transform="translate(96.390625 0)"/>
     <use xlink:href="#DejaVuSans-55" transform="translate(159.765625 0)"/>
     <use xlink:href="#DejaVuSans-10" transform="translate(194.484375 0)"/>
     <use xlink:href="#DejaVuSans-4f" transform="translate(230.5625 0)"/>
     <use xlink:href="#DejaVuSans-44" transform="translate(258.34375 0)"/>
     <use xlink:href="#DejaVuSans-51" transform="translate(319.625 0)"/>
     <use xlink:href="#DejaVuSans-48" transform="translate(383 0)"/>
     <use xlink:href="#DejaVuSans-3" transform="translate(444.53125 0)"/>
     <use xlink:href="#DejaVuSans-46" transform="translate(476.3125 0)"/>
     <use xlink:href="#DejaVuSans-52" transform="translate(531.296875 0)"/>
     <use xlink:href="#DejaVuSans-51" transform="translate(592.484375 0)"/>
     <use xlink:href="#DejaVuSans-57" transform="translate(655.859375 0)"/>
     <use xlink:href="#DejaVuSans-55" transform="translate(695.0625 0)"/>
     <use xlink:href="#DejaVuSans-44" transform="translate(736.171875 0)"/>
     <use xlink:href="#DejaVuSans-46" transform="translate(797.453125 0)"/>
     <use xlink:href="#DejaVuSans-57" transform="translate(852.4375 0)"/>
     <use xlink:href="#DejaVuSans-3" transform="translate(891.640625 0)"/>
     <use xlink:href="#DejaVuSans-15" transform="translate(923.421875 0)"/>
     <use xlink:href="#DejaVuSans-13" transform="translate(987.046875 0)"/>
     <use xlink:href="#DejaVuSans-12" transform="translate(1050.671875 0)"/>
     <use xlink:href="#DejaVuSans-15" transform="translate(1084.359375 0)"/>
     <use xlink:href="#DejaVuSans-13" transform="translate(1147.984375 0)"/>
     <use xlink:href="#DejaVuSans-1e" transform="translate(1211.609375 0)"/>
     <use xlink:href="#DejaVuSans-3" transform="translate(1245.296875 0)"/>
     <use xlink:href="#DejaVuSans-55" transform="translate(1277.078125 0)"/>
     <use xlink:href="#DejaVuSans-48" transform="translate(1315.984375 0)"/>
     <use xlink:href="#DejaVuSans-53" transform="translate(1377.515625 0)"/>
     <use xlink:href="#DejaVuSans-52" transform="translate(1441 0)"/>
     <use xlink:href="#DejaVuSans-55" transform="translate(1502.1875 0)"/>
     <use xlink:href="#DejaVuSans-57" transform="translate(1543.296875 0)"/>
     <use xlink:href="#DejaVuSans-48" transform="translate(1582.5 0)"/>
     <use xlink:href="#DejaVuSans-47" transform="translate(1644.03125 0)"/>
     <use xlink:href="#DejaVuSans-3" transform="translate(1707.515625 0)"/>
     <use xlink:href="#DejaVuSans-44" transform="translate(1739.296875 0)"/>
     <use xlink:href="#DejaVuSans-55" transform="translate(1800.578125 0)"/>
     <use xlink:href="#DejaVuSans-46" transform="translate(1839.484375 0)"/>
     <use xlink:href="#DejaVuSans-4b" transform="translate(1894.46875 0)"/>
     <use xlink:href="#DejaVuSans-4c" transform="translate(1957.84375 0)"/>
     <use xlink:href="#DejaVuSans-57" transform="translate(1985.625 0)"/>
     <use xlink:href="#DejaVuSans-48" transform="translate(2024.828125 0)"/>
     <use xlink:href="#DejaVuSans-46" transform="translate(2086.359375 0)"/>
     <use xlink:href="#DejaVuSans-57" transform="translate(2141.34375 0)"/>
     <use xlink:href="#DejaVuSans-58" transform="translate(2180.546875 0)"/>
     <use xlink:href="#DejaVuSans-55" transform="translate(2243.921875 0)"/>
     <use xlink:href="#DejaVuSans-48" transform="translate(2282.828125 0)"/>
     <use xlink:href="#DejaVuSans-1e" transform="translate(2344.359375 0)"/>
     <use xlink:href="#DejaVuSans-3" transform="translate(2378.046875 0)"/>
     <use xlink:href="#DejaVuSans-53" transform="translate(2409.828125 0)"/>
     <use xlink:href="#DejaVuSans-4b" transform="translate(2473.3125 0)"/>
     <use xlink:href="#DejaVuSans-5c" transform="translate(2536.6875 0)"/>
     <use xlink:href="#DejaVuSans-56" transform="translate(2595.875 0)"/>
     <use xlink:href="#DejaVuSans-4c" transform="translate(2647.96875 0)"/>
     <use xlink:href="#DejaVuSans-46" transform="translate(2675.75 0)"/>
     <use xlink:href="#DejaVuSans-44" transform="translate(2730.734375 0)"/>
     <use xlink:href="#DejaVuSans-4f" transform="translate(2792.015625 0)"/>
     <use xlink:href="#DejaVuSans-3" transform="translate(2819.796875 0)"/>
     <use xlink:href="#DejaVuSans-4b" transform="translate(2851.578125 0)"/>
     <use xlink:href="#DejaVuSans-52" transform="translate(2914.953125 0)"/>
     <use xlink:href="#DejaVuSans-56" transform="translate(2976.140625 0)"/>
     <use xlink:href="#DejaVuSans-57" transform="translate(3028.234375 0)"/>
     <use xlink:href="#DejaVuSans-3" transform="translate(3067.4375 0)"/>
     <use xlink:href="#DejaVuSans-58" transform="translate(3099.21875 0)"/>
     <use xlink:href="#DejaVuSans-51" transform="translate(3162.59375 0)"/>
     <use xlink:href="#DejaVuSans-4e" transform="translate(3225.96875 0)"/>
     <use xlink:href="#DejaVuSans-51" transform="translate(3283.875 0)"/>
     <use xlink:href="#DejaVuSans-52" transform="translate(3347.25 0)"/>
     <use xlink:href="#DejaVuSans-5a" transform="translate(3408.4375 0)"/>
     <use xlink:href="#DejaVuSans-51" transform="translate(3490.21875 0)"/>
    </g>
   </g>
   <g id="text_31">
    <!-- zeus2 x86-64 -->
    <g style="fill: #17212b" transform="translate(16.359524 223.70376) scale(0.082 -0.082)">
     <defs>
      <path id="DejaVuSans-Bold-5d" d="M 366 3500 
L 3419 3500 
L 3419 2719 
L 1575 800 
L 3419 800 
L 3419 0 
L 288 0 
L 288 781 
L 2131 2700 
L 366 2700 
L 366 3500 
z
" transform="scale(0.015625)"/>
      <path id="DejaVuSans-Bold-15" d="M 1844 884 
L 3897 884 
L 3897 0 
L 506 0 
L 506 884 
L 2209 2388 
Q 2438 2594 2547 2791 
Q 2656 2988 2656 3200 
Q 2656 3528 2436 3728 
Q 2216 3928 1850 3928 
Q 1569 3928 1234 3808 
Q 900 3688 519 3450 
L 519 4475 
Q 925 4609 1322 4679 
Q 1719 4750 2100 4750 
Q 2938 4750 3402 4381 
Q 3866 4013 3866 3353 
Q 3866 2972 3669 2642 
Q 3472 2313 2841 1759 
L 1844 884 
z
" transform="scale(0.015625)"/>
      <path id="DejaVuSans-Bold-5b" d="M 1422 1791 
L 159 3500 
L 1344 3500 
L 2059 2463 
L 2784 3500 
L 3969 3500 
L 2706 1797 
L 4031 0 
L 2847 0 
L 2059 1106 
L 1281 0 
L 97 0 
L 1422 1791 
z
" transform="scale(0.015625)"/>
      <path id="DejaVuSans-Bold-1b" d="M 2228 2088 
Q 1891 2088 1709 1903 
Q 1528 1719 1528 1375 
Q 1528 1031 1709 848 
Q 1891 666 2228 666 
Q 2563 666 2741 848 
Q 2919 1031 2919 1375 
Q 2919 1722 2741 1905 
Q 2563 2088 2228 2088 
z
M 1350 2484 
Q 925 2613 709 2878 
Q 494 3144 494 3541 
Q 494 4131 934 4440 
Q 1375 4750 2228 4750 
Q 3075 4750 3515 4442 
Q 3956 4134 3956 3541 
Q 3956 3144 3739 2878 
Q 3522 2613 3097 2484 
Q 3572 2353 3814 2058 
Q 4056 1763 4056 1313 
Q 4056 619 3595 264 
Q 3134 -91 2228 -91 
Q 1319 -91 855 264 
Q 391 619 391 1313 
Q 391 1763 633 2058 
Q 875 2353 1350 2484 
z
M 1631 3419 
Q 1631 3141 1786 2991 
Q 1941 2841 2228 2841 
Q 2509 2841 2662 2991 
Q 2816 3141 2816 3419 
Q 2816 3697 2662 3845 
Q 2509 3994 2228 3994 
Q 1941 3994 1786 3844 
Q 1631 3694 1631 3419 
z
" transform="scale(0.015625)"/>
      <path id="DejaVuSans-Bold-19" d="M 2316 2303 
Q 2000 2303 1842 2098 
Q 1684 1894 1684 1484 
Q 1684 1075 1842 870 
Q 2000 666 2316 666 
Q 2634 666 2792 870 
Q 2950 1075 2950 1484 
Q 2950 1894 2792 2098 
Q 2634 2303 2316 2303 
z
M 3803 4544 
L 3803 3681 
Q 3506 3822 3243 3889 
Q 2981 3956 2731 3956 
Q 2194 3956 1894 3657 
Q 1594 3359 1544 2772 
Q 1750 2925 1990 3001 
Q 2231 3078 2516 3078 
Q 3231 3078 3670 2659 
Q 4109 2241 4109 1563 
Q 4109 813 3618 361 
Q 3128 -91 2303 -91 
Q 1394 -91 895 523 
Q 397 1138 397 2266 
Q 397 3422 980 4083 
Q 1563 4744 2578 4744 
Q 2900 4744 3203 4694 
Q 3506 4644 3803 4544 
z
" transform="scale(0.015625)"/>
      <path id="DejaVuSans-Bold-10" d="M 347 2297 
L 2309 2297 
L 2309 1388 
L 347 1388 
L 347 2297 
z
" transform="scale(0.015625)"/>
      <path id="DejaVuSans-Bold-17" d="M 2356 3675 
L 1038 1722 
L 2356 1722 
L 2356 3675 
z
M 2156 4666 
L 3494 4666 
L 3494 1722 
L 4159 1722 
L 4159 850 
L 3494 850 
L 3494 0 
L 2356 0 
L 2356 850 
L 288 850 
L 288 1881 
L 2156 4666 
z
" transform="scale(0.015625)"/>
     </defs>
     <use xlink:href="#DejaVuSans-Bold-5d"/>
     <use xlink:href="#DejaVuSans-Bold-48" transform="translate(58.203125 0)"/>
     <use xlink:href="#DejaVuSans-Bold-58" transform="translate(126.03125 0)"/>
     <use xlink:href="#DejaVuSans-Bold-56" transform="translate(197.21875 0)"/>
     <use xlink:href="#DejaVuSans-Bold-15" transform="translate(256.734375 0)"/>
     <use xlink:href="#DejaVuSans-Bold-3" transform="translate(326.3125 0)"/>
     <use xlink:href="#DejaVuSans-Bold-5b" transform="translate(361.125 0)"/>
     <use xlink:href="#DejaVuSans-Bold-1b" transform="translate(425.625 0)"/>
     <use xlink:href="#DejaVuSans-Bold-19" transform="translate(495.203125 0)"/>
     <use xlink:href="#DejaVuSans-Bold-10" transform="translate(564.78125 0)"/>
     <use xlink:href="#DejaVuSans-Bold-19" transform="translate(606.28125 0)"/>
     <use xlink:href="#DejaVuSans-Bold-17" transform="translate(675.859375 0)"/>
    </g>
    <!-- Hyper-V VM -->
    <g style="fill: #17212b" transform="translate(16.359524 233.545362) scale(0.082 -0.082)">
     <defs>
      <path id="DejaVuSans-Bold-2b" d="M 588 4666 
L 1791 4666 
L 1791 2888 
L 3566 2888 
L 3566 4666 
L 4769 4666 
L 4769 0 
L 3566 0 
L 3566 1978 
L 1791 1978 
L 1791 0 
L 588 0 
L 588 4666 
z
" transform="scale(0.015625)"/>
      <path id="DejaVuSans-Bold-39" d="M 31 4666 
L 1241 4666 
L 2478 1222 
L 3713 4666 
L 4922 4666 
L 3194 0 
L 1759 0 
L 31 4666 
z
" transform="scale(0.015625)"/>
     </defs>
     <use xlink:href="#DejaVuSans-Bold-2b"/>
     <use xlink:href="#DejaVuSans-Bold-5c" transform="translate(83.6875 0)"/>
     <use xlink:href="#DejaVuSans-Bold-53" transform="translate(148.875 0)"/>
     <use xlink:href="#DejaVuSans-Bold-48" transform="translate(220.453125 0)"/>
     <use xlink:href="#DejaVuSans-Bold-55" transform="translate(288.28125 0)"/>
     <use xlink:href="#DejaVuSans-Bold-10" transform="translate(337.59375 0)"/>
     <use xlink:href="#DejaVuSans-Bold-39" transform="translate(371.8125 0)"/>
     <use xlink:href="#DejaVuSans-Bold-3" transform="translate(449.203125 0)"/>
     <use xlink:href="#DejaVuSans-Bold-39" transform="translate(484.015625 0)"/>
     <use xlink:href="#DejaVuSans-Bold-30" transform="translate(561.40625 0)"/>
    </g>
   </g>
   <g id="text_32">
    <!-- 16 -->
    <g style="fill: #17212b" transform="translate(263.029179 228.624561) scale(0.082 -0.082)">
     <use xlink:href="#DejaVuSans-14"/>
     <use xlink:href="#DejaVuSans-19" transform="translate(63.625 0)"/>
    </g>
   </g>
   <g id="text_33">
    <!-- 104 -->
    <g style="fill: #17212b" transform="translate(352.015792 228.624561) scale(0.082 -0.082)">
     <use xlink:href="#DejaVuSans-14"/>
     <use xlink:href="#DejaVuSans-13" transform="translate(63.625 0)"/>
     <use xlink:href="#DejaVuSans-17" transform="translate(127.25 0)"/>
    </g>
   </g>
   <g id="text_34">
    <!-- 104 -->
    <g style="fill: #17212b" transform="translate(443.61103 228.624561) scale(0.082 -0.082)">
     <use xlink:href="#DejaVuSans-14"/>
     <use xlink:href="#DejaVuSans-13" transform="translate(63.625 0)"/>
     <use xlink:href="#DejaVuSans-17" transform="translate(127.25 0)"/>
    </g>
   </g>
   <g id="text_35">
    <!-- 372 -->
    <g style="fill: #17212b" transform="translate(535.206268 228.624561) scale(0.082 -0.082)">
     <use xlink:href="#DejaVuSans-16"/>
     <use xlink:href="#DejaVuSans-1a" transform="translate(63.625 0)"/>
     <use xlink:href="#DejaVuSans-15" transform="translate(127.25 0)"/>
    </g>
   </g>
   <g id="text_36">
    <!-- 104/104 -->
    <g style="fill: #2f6f4e" transform="translate(616.013381 228.624561) scale(0.082 -0.082)">
     <defs>
      <path id="DejaVuSans-Bold-14" d="M 750 831 
L 1813 831 
L 1813 3847 
L 722 3622 
L 722 4441 
L 1806 4666 
L 2950 4666 
L 2950 831 
L 4013 831 
L 4013 0 
L 750 0 
L 750 831 
z
" transform="scale(0.015625)"/>
      <path id="DejaVuSans-Bold-13" d="M 2944 2338 
Q 2944 3213 2780 3570 
Q 2616 3928 2228 3928 
Q 1841 3928 1675 3570 
Q 1509 3213 1509 2338 
Q 1509 1453 1675 1090 
Q 1841 728 2228 728 
Q 2613 728 2778 1090 
Q 2944 1453 2944 2338 
z
M 4147 2328 
Q 4147 1169 3647 539 
Q 3147 -91 2228 -91 
Q 1306 -91 806 539 
Q 306 1169 306 2328 
Q 306 3491 806 4120 
Q 1306 4750 2228 4750 
Q 3147 4750 3647 4120 
Q 4147 3491 4147 2328 
z
" transform="scale(0.015625)"/>
      <path id="DejaVuSans-Bold-12" d="M 1644 4666 
L 2338 4666 
L 691 -594 
L 0 -594 
L 1644 4666 
z
" transform="scale(0.015625)"/>
     </defs>
     <use xlink:href="#DejaVuSans-Bold-14"/>
     <use xlink:href="#DejaVuSans-Bold-13" transform="translate(69.578125 0)"/>
     <use xlink:href="#DejaVuSans-Bold-17" transform="translate(139.15625 0)"/>
     <use xlink:href="#DejaVuSans-Bold-12" transform="translate(208.734375 0)"/>
     <use xlink:href="#DejaVuSans-Bold-14" transform="translate(245.265625 0)"/>
     <use xlink:href="#DejaVuSans-Bold-13" transform="translate(314.84375 0)"/>
     <use xlink:href="#DejaVuSans-Bold-17" transform="translate(384.421875 0)"/>
    </g>
   </g>
   <g id="text_37">
    <!-- 64/64 -->
    <g style="fill: #2f6f4e" transform="translate(713.314025 228.624561) scale(0.082 -0.082)">
     <use xlink:href="#DejaVuSans-Bold-19"/>
     <use xlink:href="#DejaVuSans-Bold-17" transform="translate(69.578125 0)"/>
     <use xlink:href="#DejaVuSans-Bold-12" transform="translate(139.15625 0)"/>
     <use xlink:href="#DejaVuSans-Bold-19" transform="translate(175.6875 0)"/>
     <use xlink:href="#DejaVuSans-Bold-17" transform="translate(245.265625 0)"/>
    </g>
   </g>
   <g id="text_38">
    <!-- four-lane contract 20/20; identified VM/OS; Microsoft vTPM -->
    <g style="fill: #4e5c6b" transform="translate(16.359524 247.725717) scale(0.068 -0.068)">
     <defs>
      <path id="DejaVuSans-13af" d="M 3431 3500 
L 3431 0 
L 2853 0 
L 2853 3053 
L 1275 3053 
L 1275 0 
L 697 0 
L 697 3053 
L 147 3053 
L 147 3500 
L 697 3500 
L 697 3744 
Q 697 4316 967 4589 
Q 1238 4863 1797 4863 
L 2375 4863 
L 2375 4384 
L 1825 4384 
Q 1516 4384 1395 4259 
Q 1275 4134 1275 3809 
L 1275 3500 
L 3431 3500 
z
M 2853 4856 
L 3431 4856 
L 3431 4128 
L 2853 4128 
L 2853 4856 
z
" transform="scale(0.015625)"/>
      <path id="DejaVuSans-32" d="M 2522 4238 
Q 1834 4238 1429 3725 
Q 1025 3213 1025 2328 
Q 1025 1447 1429 934 
Q 1834 422 2522 422 
Q 3209 422 3611 934 
Q 4013 1447 4013 2328 
Q 4013 3213 3611 3725 
Q 3209 4238 2522 4238 
z
M 2522 4750 
Q 3503 4750 4090 4092 
Q 4678 3434 4678 2328 
Q 4678 1225 4090 567 
Q 3503 -91 2522 -91 
Q 1538 -91 948 565 
Q 359 1222 359 2328 
Q 359 3434 948 4092 
Q 1538 4750 2522 4750 
z
" transform="scale(0.015625)"/>
      <path id="DejaVuSans-36" d="M 3425 4513 
L 3425 3897 
Q 3066 4069 2747 4153 
Q 2428 4238 2131 4238 
Q 1616 4238 1336 4038 
Q 1056 3838 1056 3469 
Q 1056 3159 1242 3001 
Q 1428 2844 1947 2747 
L 2328 2669 
Q 3034 2534 3370 2195 
Q 3706 1856 3706 1288 
Q 3706 609 3251 259 
Q 2797 -91 1919 -91 
Q 1588 -91 1214 -16 
Q 841 59 441 206 
L 441 856 
Q 825 641 1194 531 
Q 1563 422 1919 422 
Q 2459 422 2753 634 
Q 3047 847 3047 1241 
Q 3047 1584 2836 1778 
Q 2625 1972 2144 2069 
L 1759 2144 
Q 1053 2284 737 2584 
Q 422 2884 422 3419 
Q 422 4038 858 4394 
Q 1294 4750 2059 4750 
Q 2388 4750 2728 4690 
Q 3069 4631 3425 4513 
z
" transform="scale(0.015625)"/>
      <path id="DejaVuSans-59" d="M 191 3500 
L 800 3500 
L 1894 563 
L 2988 3500 
L 3597 3500 
L 2284 0 
L 1503 0 
L 191 3500 
z
" transform="scale(0.015625)"/>
     </defs>
     <use xlink:href="#DejaVuSans-49"/>
     <use xlink:href="#DejaVuSans-52" transform="translate(35.203125 0)"/>
     <use xlink:href="#DejaVuSans-58" transform="translate(96.390625 0)"/>
     <use xlink:href="#DejaVuSans-55" transform="translate(159.765625 0)"/>
     <use xlink:href="#DejaVuSans-10" transform="translate(194.484375 0)"/>
     <use xlink:href="#DejaVuSans-4f" transform="translate(230.5625 0)"/>
     <use xlink:href="#DejaVuSans-44" transform="translate(258.34375 0)"/>
     <use xlink:href="#DejaVuSans-51" transform="translate(319.625 0)"/>
     <use xlink:href="#DejaVuSans-48" transform="translate(383 0)"/>
     <use xlink:href="#DejaVuSans-3" transform="translate(444.53125 0)"/>
     <use xlink:href="#DejaVuSans-46" transform="translate(476.3125 0)"/>
     <use xlink:href="#DejaVuSans-52" transform="translate(531.296875 0)"/>
     <use xlink:href="#DejaVuSans-51" transform="translate(592.484375 0)"/>
     <use xlink:href="#DejaVuSans-57" transform="translate(655.859375 0)"/>
     <use xlink:href="#DejaVuSans-55" transform="translate(695.0625 0)"/>
     <use xlink:href="#DejaVuSans-44" transform="translate(736.171875 0)"/>
     <use xlink:href="#DejaVuSans-46" transform="translate(797.453125 0)"/>
     <use xlink:href="#DejaVuSans-57" transform="translate(852.4375 0)"/>
     <use xlink:href="#DejaVuSans-3" transform="translate(891.640625 0)"/>
     <use xlink:href="#DejaVuSans-15" transform="translate(923.421875 0)"/>
     <use xlink:href="#DejaVuSans-13" transform="translate(987.046875 0)"/>
     <use xlink:href="#DejaVuSans-12" transform="translate(1050.671875 0)"/>
     <use xlink:href="#DejaVuSans-15" transform="translate(1084.359375 0)"/>
     <use xlink:href="#DejaVuSans-13" transform="translate(1147.984375 0)"/>
     <use xlink:href="#DejaVuSans-1e" transform="translate(1211.609375 0)"/>
     <use xlink:href="#DejaVuSans-3" transform="translate(1245.296875 0)"/>
     <use xlink:href="#DejaVuSans-4c" transform="translate(1277.078125 0)"/>
     <use xlink:href="#DejaVuSans-47" transform="translate(1304.859375 0)"/>
     <use xlink:href="#DejaVuSans-48" transform="translate(1368.34375 0)"/>
     <use xlink:href="#DejaVuSans-51" transform="translate(1429.875 0)"/>
     <use xlink:href="#DejaVuSans-57" transform="translate(1493.25 0)"/>
     <use xlink:href="#DejaVuSans-4c" transform="translate(1532.453125 0)"/>
     <use xlink:href="#DejaVuSans-13af" transform="translate(1560.234375 0)"/>
     <use xlink:href="#DejaVuSans-48" transform="translate(1623.21875 0)"/>
     <use xlink:href="#DejaVuSans-47" transform="translate(1684.75 0)"/>
     <use xlink:href="#DejaVuSans-3" transform="translate(1748.234375 0)"/>
     <use xlink:href="#DejaVuSans-39" transform="translate(1780.015625 0)"/>
     <use xlink:href="#DejaVuSans-30" transform="translate(1848.421875 0)"/>
     <use xlink:href="#DejaVuSans-12" transform="translate(1934.703125 0)"/>
     <use xlink:href="#DejaVuSans-32" transform="translate(1968.390625 0)"/>
     <use xlink:href="#DejaVuSans-36" transform="translate(2047.109375 0)"/>
     <use xlink:href="#DejaVuSans-1e" transform="translate(2110.59375 0)"/>
     <use xlink:href="#DejaVuSans-3" transform="translate(2144.28125 0)"/>
     <use xlink:href="#DejaVuSans-30" transform="translate(2176.0625 0)"/>
     <use xlink:href="#DejaVuSans-4c" transform="translate(2262.34375 0)"/>
     <use xlink:href="#DejaVuSans-46" transform="translate(2290.125 0)"/>
     <use xlink:href="#DejaVuSans-55" transform="translate(2345.109375 0)"/>
     <use xlink:href="#DejaVuSans-52" transform="translate(2384.015625 0)"/>
     <use xlink:href="#DejaVuSans-56" transform="translate(2445.203125 0)"/>
     <use xlink:href="#DejaVuSans-52" transform="translate(2497.296875 0)"/>
     <use xlink:href="#DejaVuSans-49" transform="translate(2558.484375 0)"/>
     <use xlink:href="#DejaVuSans-57" transform="translate(2591.9375 0)"/>
     <use xlink:href="#DejaVuSans-3" transform="translate(2631.140625 0)"/>
     <use xlink:href="#DejaVuSans-59" transform="translate(2662.921875 0)"/>
     <use xlink:href="#DejaVuSans-37" transform="translate(2722.109375 0)"/>
     <use xlink:href="#DejaVuSans-33" transform="translate(2783.1875 0)"/>
     <use xlink:href="#DejaVuSans-30" transform="translate(2843.484375 0)"/>
    </g>
   </g>
   <g id="text_39">
    <!-- Counts are deterministic contract checks, not deployed-system rates. vTPM evidence is not hardware-rooted attestation. -->
    <g style="fill: #17212b" transform="translate(16.359524 284.487835) scale(0.072 -0.072)">
     <defs>
      <path id="DejaVuSans-26" d="M 4122 4306 
L 4122 3641 
Q 3803 3938 3442 4084 
Q 3081 4231 2675 4231 
Q 1875 4231 1450 3742 
Q 1025 3253 1025 2328 
Q 1025 1406 1450 917 
Q 1875 428 2675 428 
Q 3081 428 3442 575 
Q 3803 722 4122 1019 
L 4122 359 
Q 3791 134 3420 21 
Q 3050 -91 2638 -91 
Q 1578 -91 968 557 
Q 359 1206 359 2328 
Q 359 3453 968 4101 
Q 1578 4750 2638 4750 
Q 3056 4750 3426 4639 
Q 3797 4528 4122 4306 
z
" transform="scale(0.015625)"/>
      <path id="DejaVuSans-f" d="M 750 794 
L 1409 794 
L 1409 256 
L 897 -744 
L 494 -744 
L 750 256 
L 750 794 
z
" transform="scale(0.015625)"/>
      <path id="DejaVuSans-11" d="M 684 794 
L 1344 794 
L 1344 0 
L 684 0 
L 684 794 
z
" transform="scale(0.015625)"/>
     </defs>
     <use xlink:href="#DejaVuSans-26"/>
     <use xlink:href="#DejaVuSans-52" transform="translate(69.828125 0)"/>
     <use xlink:href="#DejaVuSans-58" transform="translate(131.015625 0)"/>
     <use xlink:href="#DejaVuSans-51" transform="translate(194.390625 0)"/>
     <use xlink:href="#DejaVuSans-57" transform="translate(257.765625 0)"/>
     <use xlink:href="#DejaVuSans-56" transform="translate(296.96875 0)"/>
     <use xlink:href="#DejaVuSans-3" transform="translate(349.0625 0)"/>
     <use xlink:href="#DejaVuSans-44" transform="translate(380.84375 0)"/>
     <use xlink:href="#DejaVuSans-55" transform="translate(442.125 0)"/>
     <use xlink:href="#DejaVuSans-48" transform="translate(481.03125 0)"/>
     <use xlink:href="#DejaVuSans-3" transform="translate(542.5625 0)"/>
     <use xlink:href="#DejaVuSans-47" transform="translate(574.34375 0)"/>
     <use xlink:href="#DejaVuSans-48" transform="translate(637.828125 0)"/>
     <use xlink:href="#DejaVuSans-57" transform="translate(699.359375 0)"/>
     <use xlink:href="#DejaVuSans-48" transform="translate(738.5625 0)"/>
     <use xlink:href="#DejaVuSans-55" transform="translate(800.09375 0)"/>
     <use xlink:href="#DejaVuSans-50" transform="translate(839.453125 0)"/>
     <use xlink:href="#DejaVuSans-4c" transform="translate(936.859375 0)"/>
     <use xlink:href="#DejaVuSans-51" transform="translate(964.640625 0)"/>
     <use xlink:href="#DejaVuSans-4c" transform="translate(1028.015625 0)"/>
     <use xlink:href="#DejaVuSans-56" transform="translate(1055.796875 0)"/>
     <use xlink:href="#DejaVuSans-57" transform="translate(1107.890625 0)"/>
     <use xlink:href="#DejaVuSans-4c" transform="translate(1147.09375 0)"/>
     <use xlink:href="#DejaVuSans-46" transform="translate(1174.875 0)"/>
     <use xlink:href="#DejaVuSans-3" transform="translate(1229.859375 0)"/>
     <use xlink:href="#DejaVuSans-46" transform="translate(1261.640625 0)"/>
     <use xlink:href="#DejaVuSans-52" transform="translate(1316.625 0)"/>
     <use xlink:href="#DejaVuSans-51" transform="translate(1377.8125 0)"/>
     <use xlink:href="#DejaVuSans-57" transform="translate(1441.1875 0)"/>
     <use xlink:href="#DejaVuSans-55" transform="translate(1480.390625 0)"/>
     <use xlink:href="#DejaVuSans-44" transform="translate(1521.5 0)"/>
     <use xlink:href="#DejaVuSans-46" transform="translate(1582.78125 0)"/>
     <use xlink:href="#DejaVuSans-57" transform="translate(1637.765625 0)"/>
     <use xlink:href="#DejaVuSans-3" transform="translate(1676.96875 0)"/>
     <use xlink:href="#DejaVuSans-46" transform="translate(1708.75 0)"/>
     <use xlink:href="#DejaVuSans-4b" transform="translate(1763.734375 0)"/>
     <use xlink:href="#DejaVuSans-48" transform="translate(1827.109375 0)"/>
     <use xlink:href="#DejaVuSans-46" transform="translate(1888.640625 0)"/>
     <use xlink:href="#DejaVuSans-4e" transform="translate(1943.625 0)"/>
     <use xlink:href="#DejaVuSans-56" transform="translate(2001.53125 0)"/>
     <use xlink:href="#DejaVuSans-f" transform="translate(2053.625 0)"/>
     <use xlink:href="#DejaVuSans-3" transform="translate(2085.40625 0)"/>
     <use xlink:href="#DejaVuSans-51" transform="translate(2117.1875 0)"/>
     <use xlink:href="#DejaVuSans-52" transform="translate(2180.5625 0)"/>
     <use xlink:href="#DejaVuSans-57" transform="translate(2241.75 0)"/>
     <use xlink:href="#DejaVuSans-3" transform="translate(2280.953125 0)"/>
     <use xlink:href="#DejaVuSans-47" transform="translate(2312.734375 0)"/>
     <use xlink:href="#DejaVuSans-48" transform="translate(2376.21875 0)"/>
     <use xlink:href="#DejaVuSans-53" transform="translate(2437.75 0)"/>
     <use xlink:href="#DejaVuSans-4f" transform="translate(2501.234375 0)"/>
     <use xlink:href="#DejaVuSans-52" transform="translate(2529.015625 0)"/>
     <use xlink:href="#DejaVuSans-5c" transform="translate(2590.203125 0)"/>
     <use xlink:href="#DejaVuSans-48" transform="translate(2649.390625 0)"/>
     <use xlink:href="#DejaVuSans-47" transform="translate(2710.921875 0)"/>
     <use xlink:href="#DejaVuSans-10" transform="translate(2774.40625 0)"/>
     <use xlink:href="#DejaVuSans-56" transform="translate(2810.484375 0)"/>
     <use xlink:href="#DejaVuSans-5c" transform="translate(2862.578125 0)"/>
     <use xlink:href="#DejaVuSans-56" transform="translate(2921.765625 0)"/>
     <use xlink:href="#DejaVuSans-57" transform="translate(2973.859375 0)"/>
     <use xlink:href="#DejaVuSans-48" transform="translate(3013.0625 0)"/>
     <use xlink:href="#DejaVuSans-50" transform="translate(3074.59375 0)"/>
     <use xlink:href="#DejaVuSans-3" transform="translate(3172 0)"/>
     <use xlink:href="#DejaVuSans-55" transform="translate(3203.78125 0)"/>
     <use xlink:href="#DejaVuSans-44" transform="translate(3244.890625 0)"/>
     <use xlink:href="#DejaVuSans-57" transform="translate(3306.171875 0)"/>
     <use xlink:href="#DejaVuSans-48" transform="translate(3345.375 0)"/>
     <use xlink:href="#DejaVuSans-56" transform="translate(3406.90625 0)"/>
     <use xlink:href="#DejaVuSans-11" transform="translate(3459 0)"/>
     <use xlink:href="#DejaVuSans-3" transform="translate(3490.78125 0)"/>
     <use xlink:href="#DejaVuSans-59" transform="translate(3522.5625 0)"/>
     <use xlink:href="#DejaVuSans-37" transform="translate(3581.75 0)"/>
     <use xlink:href="#DejaVuSans-33" transform="translate(3642.828125 0)"/>
     <use xlink:href="#DejaVuSans-30" transform="translate(3703.125 0)"/>
     <use xlink:href="#DejaVuSans-3" transform="translate(3789.40625 0)"/>
     <use xlink:href="#DejaVuSans-48" transform="translate(3821.1875 0)"/>
     <use xlink:href="#DejaVuSans-59" transform="translate(3882.71875 0)"/>
     <use xlink:href="#DejaVuSans-4c" transform="translate(3941.90625 0)"/>
     <use xlink:href="#DejaVuSans-47" transform="translate(3969.6875 0)"/>
     <use xlink:href="#DejaVuSans-48" transform="translate(4033.171875 0)"/>
     <use xlink:href="#DejaVuSans-51" transform="translate(4094.703125 0)"/>
     <use xlink:href="#DejaVuSans-46" transform="translate(4158.078125 0)"/>
     <use xlink:href="#DejaVuSans-48" transform="translate(4213.0625 0)"/>
     <use xlink:href="#DejaVuSans-3" transform="translate(4274.59375 0)"/>
     <use xlink:href="#DejaVuSans-4c" transform="translate(4306.375 0)"/>
     <use xlink:href="#DejaVuSans-56" transform="translate(4334.15625 0)"/>
     <use xlink:href="#DejaVuSans-3" transform="translate(4386.25 0)"/>
     <use xlink:href="#DejaVuSans-51" transform="translate(4418.03125 0)"/>
     <use xlink:href="#DejaVuSans-52" transform="translate(4481.40625 0)"/>
     <use xlink:href="#DejaVuSans-57" transform="translate(4542.59375 0)"/>
     <use xlink:href="#DejaVuSans-3" transform="translate(4581.796875 0)"/>
     <use xlink:href="#DejaVuSans-4b" transform="translate(4613.578125 0)"/>
     <use xlink:href="#DejaVuSans-44" transform="translate(4676.953125 0)"/>
     <use xlink:href="#DejaVuSans-55" transform="translate(4738.234375 0)"/>
     <use xlink:href="#DejaVuSans-47" transform="translate(4777.59375 0)"/>
     <use xlink:href="#DejaVuSans-5a" transform="translate(4841.078125 0)"/>
     <use xlink:href="#DejaVuSans-44" transform="translate(4922.859375 0)"/>
     <use xlink:href="#DejaVuSans-55" transform="translate(4984.140625 0)"/>
     <use xlink:href="#DejaVuSans-48" transform="translate(5023.046875 0)"/>
     <use xlink:href="#DejaVuSans-10" transform="translate(5084.578125 0)"/>
     <use xlink:href="#DejaVuSans-55" transform="translate(5120.65625 0)"/>
     <use xlink:href="#DejaVuSans-52" transform="translate(5159.5625 0)"/>
     <use xlink:href="#DejaVuSans-52" transform="translate(5220.75 0)"/>
     <use xlink:href="#DejaVuSans-57" transform="translate(5281.9375 0)"/>
     <use xlink:href="#DejaVuSans-48" transform="translate(5321.140625 0)"/>
     <use xlink:href="#DejaVuSans-47" transform="translate(5382.671875 0)"/>
     <use xlink:href="#DejaVuSans-3" transform="translate(5446.15625 0)"/>
     <use xlink:href="#DejaVuSans-44" transform="translate(5477.9375 0)"/>
     <use xlink:href="#DejaVuSans-57" transform="translate(5539.21875 0)"/>
     <use xlink:href="#DejaVuSans-57" transform="translate(5578.421875 0)"/>
     <use xlink:href="#DejaVuSans-48" transform="translate(5617.625 0)"/>
     <use xlink:href="#DejaVuSans-56" transform="translate(5679.15625 0)"/>
     <use xlink:href="#DejaVuSans-57" transform="translate(5731.25 0)"/>
     <use xlink:href="#DejaVuSans-44" transform="translate(5770.453125 0)"/>
     <use xlink:href="#DejaVuSans-57" transform="translate(5831.734375 0)"/>
     <use xlink:href="#DejaVuSans-4c" transform="translate(5870.9375 0)"/>
     <use xlink:href="#DejaVuSans-52" transform="translate(5898.71875 0)"/>
     <use xlink:href="#DejaVuSans-51" transform="translate(5959.90625 0)"/>
     <use xlink:href="#DejaVuSans-11" transform="translate(6023.28125 0)"/>
    </g>
   </g>
  </g>
 </g>
 <defs>
  <clipPath id="p5b9f894208">
   <rect x="7.2" y="7.2" width="769.4" height="301.4"/>
  </clipPath>
 </defs>
</svg>
